<svg xmlns="http://www.w3.org/2000/svg" viewBox="0 0 1739.97 1304.98"><defs><style>.cls-1{isolation:isolate;}.cls-2{fill:#fff;}.cls-3{fill:#f1fbfe;}.cls-4{fill:#ffdfdb;}.cls-5{fill:#f1f2f2;}.cls-6{fill:#b5e0f5;}.cls-7{fill:#80c9ed;}.cls-8{fill:#ff5b4a;}.cls-9{fill:#f7d5a0;}.cls-10{fill:#ffcfc7;}.cls-11{fill:#10364d;}.cls-12{fill:#2582b5;}.cls-13{fill:#ffa899;}.cls-14{fill:#0e3144;}.cls-15{fill:#54acde;}.cls-16{mix-blend-mode:multiply;}.cls-17{fill:#1f6c96;}.cls-18{fill:#1d648c;}.cls-19{fill:#0f3245;}.cls-20{fill:#134059;}.cls-21{fill:#0f3347;}.cls-22{fill:#195578;}.cls-23{fill:#14425e;}.cls-24{fill:#1e6891;}</style></defs><g class="cls-1"><rect class="cls-2" width="1739.97" height="1304.98"/><path class="cls-3" d="M1259.3,878s66.32,8.09,179.12-98.4c150-141.6,208.3-504.29-133.18-464.85C962,354.39,910.72,196.26,755.52,153.82c-190.89-52.2-261.8,97.72-311.72,225.34-32.09,82-205.16,145-282.16,281-84.1,148.57-23.3,518.33,571.08,423.43,438.25-70,537.83-95.67,537.83-95.67l175.08-91.77Z" transform="translate(-2.16 -14.6)"/><path class="cls-4" d="M910,932.34c-153.12-6.61-218.51-54.85-294.22-110.7-19.52-14.4-39.7-29.29-62.27-44.14-51.63-34-98.79-55.63-144.18-66.15-45.59-10.56-86-9.14-119.5-6.35-75.61,6.29-115.44-15.87-115.83-16.09l-3.2,5.57c1.67,1,41.77,23.39,119.56,16.92,82.79-6.89,155.1,2.67,259.62,71.47,22.42,14.76,42.54,29.59,62,43.94,76.56,56.48,142.68,105.25,297.75,112Z" transform="translate(-2.16 -14.6)"/><path class="cls-4" d="M93.82,657.78c-10.08,22.39,20.84,47.82,53.47,59.27,31,10.88,56.52,4.18,63.87-9.65,7.54-14.18-1.45-40-39.54-57C128.44,631.15,100.75,642.38,93.82,657.78Z" transform="translate(-2.16 -14.6)"/><path class="cls-4" d="M150.68,810c12.12,21.35,50.9,11.4,79.4-8.2,27.07-18.6,36.72-43.16,29.89-57.26-7-14.45-33.17-22.45-69.35-1.71C149.6,766.38,142.33,795.36,150.68,810Z" transform="translate(-2.16 -14.6)"/><path class="cls-4" d="M228.32,583.92c-17.25,17.47,2.85,52.09,29.45,74.2,25.26,21,51.51,23.62,63.22,13.22,12-10.67,12.6-38-17.18-67.22C270,571,240.18,571.9,228.32,583.92Z" transform="translate(-2.16 -14.6)"/><path class="cls-4" d="M296.91,831.32c14.58,19.75,51.9,5.28,77.88-17.56,24.67-21.68,31.34-47.21,22.89-60.39-8.67-13.53-35.6-18.36-69.07,6.52C290.67,788.1,286.89,817.73,296.91,831.32Z" transform="translate(-2.16 -14.6)"/><path class="cls-4" d="M430.27,548.89c-24.47-2-38,35.72-37.81,70.31.2,32.84,15.1,54.62,30.6,56.88,15.89,2.32,37.2-14.84,40.36-56.43C467,572.51,447.1,550.23,430.27,548.89Z" transform="translate(-2.16 -14.6)"/><path class="cls-4" d="M416.89,873.33c14.57,19.76,51.9,5.28,77.88-17.55,24.66-21.68,31.34-47.21,22.89-60.4-8.67-13.52-35.6-18.36-69.07,6.53C410.65,830.11,406.87,859.75,416.89,873.33Z" transform="translate(-2.16 -14.6)"/><path class="cls-4" d="M586.66,624.63c-22.08-10.73-48.42,19.41-60.83,51.7C514,707,520,732.69,533.59,740.45c13.95,7.95,40-.26,58.15-37.84C612.25,660,601.84,632,586.66,624.63Z" transform="translate(-2.16 -14.6)"/><path class="cls-4" d="M721.19,713.14c-19.3-15.18-51.44,8.69-70.42,37.6-18,27.45-17.69,53.83-6,64.3,11.95,10.74,39.19,8.25,64.86-24.62C738.68,753.15,734.46,723.58,721.19,713.14Z" transform="translate(-2.16 -14.6)"/><path class="cls-4" d="M843.42,816.52c-10.83-19-45.44-10.16-70.88,7.33-24.16,16.61-32.77,38.52-26.67,51.1,6.25,12.91,29.6,20,61.9,1.53C844.38,855.49,850.86,829.63,843.42,816.52Z" transform="translate(-2.16 -14.6)"/><rect class="cls-4" x="248.32" y="721.06" width="41.82" height="6.43" transform="translate(-452.1 427.08) rotate(-48.16)"/><rect class="cls-4" x="319.66" y="671.63" width="6.43" height="36.84" transform="translate(-293.37 224.53) rotate(-28.64)"/><polygon class="cls-4" points="429.16 659.81 422.76 659.28 419.17 702.68 390.53 735.71 395.38 739.92 425.41 705.31 429.16 659.81"/><polygon class="cls-4" points="537.46 725.76 531.03 726.01 532.2 755.31 510.99 777.22 515.61 781.69 538.72 757.8 537.46 725.76"/><polygon class="cls-4" points="650.26 800.07 643.96 798.79 637.83 829.05 614.75 847.22 618.72 852.27 643.65 832.64 650.26 800.07"/><polygon class="cls-4" points="750.25 866.2 746.14 861.26 722.94 880.58 725.25 910.78 731.66 910.29 729.6 883.39 750.25 866.2"/><ellipse class="cls-5" cx="785.47" cy="1180.2" rx="217.48" ry="27.03"/><ellipse class="cls-5" cx="1235.81" cy="1202.64" rx="176.11" ry="23.28"/><path class="cls-6" d="M905.1,850.56C772.52,773.68,737,700.62,695.79,616c-10.61-21.81-21.59-44.36-34.69-68-30-54.06-61.72-95.1-97.05-125.47-35.49-30.51-71.95-48-102.92-61.06-69.9-29.5-94.91-67.6-95.15-68L360.56,297c1,1.62,26.15,40.1,98.07,70.44,76.54,32.31,136.17,74.31,196.85,183.74,13,23.48,24,46,34.53,67.68,41.64,85.55,77.59,159.43,211.86,237.29Z" transform="translate(-2.16 -14.6)"/><path class="cls-6" d="M309.43,228.77c-19.32,15.16-3.73,52,19.88,77.32,22.41,24,48.12,29.91,61.05,21.07,13.26-9.07,17.29-36.13-8.59-68.84C352.44,221.24,322.71,218.35,309.43,228.77Z" transform="translate(-2.16 -14.6)"/><path class="cls-6" d="M289.17,390c.84,24.53,39.81,33.7,74.15,29.56,32.61-3.93,52.55-21.2,53-36.86.5-16.05-19-35.27-60.65-33.68C308.47,350.86,288.59,373.16,289.17,390Z" transform="translate(-2.16 -14.6)"/><path class="cls-6" d="M462.84,225.72c-23.39,7.48-21.63,47.47-8.32,79.4,12.63,30.31,34.68,44.81,49.88,41,15.58-3.88,28.79-27.84,15.94-67.52C505.78,233.66,478.92,220.58,462.84,225.72Z" transform="translate(-2.16 -14.6)"/><path class="cls-6" d="M408.86,476.71C412.6,501,452.38,505.46,486,497.28c31.91-7.76,49.67-27.28,48.29-42.89-1.4-16-23-32.77-64.21-26.25C423.37,435.53,406.28,460,408.86,476.71Z" transform="translate(-2.16 -14.6)"/><path class="cls-6" d="M658,288.36c-20.77-13.08-50.24,14-66.1,44.75-15.06,29.19-12,55.39.72,64.59,13,9.43,39.84,4.11,61.92-31.27C679.58,326.33,672.29,297.36,658,288.36Z" transform="translate(-2.16 -14.6)"/><path class="cls-6" d="M495.66,569.59c3.74,24.26,43.53,28.75,77.13,20.57,31.91-7.77,49.67-27.29,48.3-42.89-1.41-16-23-32.78-64.22-26.26C510.17,528.4,493.08,552.9,495.66,569.59Z" transform="translate(-2.16 -14.6)"/><path class="cls-6" d="M761.42,428c-14.58-19.75-51.9-5.26-77.87,17.59-24.66,21.69-31.33,47.22-22.87,60.4,8.67,13.52,35.6,18.35,69.07-6.55C767.68,471.22,771.45,441.59,761.42,428Z" transform="translate(-2.16 -14.6)"/><path class="cls-6" d="M588.26,741.06c16.71,18,52.17-.59,75.41-26.21,22.07-24.32,25.83-50.44,15.94-62.59-10.13-12.46-37.43-14.23-67.89,14.26C577.19,698.82,576.77,728.69,588.26,741.06Z" transform="translate(-2.16 -14.6)"/><path class="cls-6" d="M839.55,568.81c-10.06-22.4-49.6-16.16-79.83.65-28.71,16-40.64,39.49-35.18,54.17,5.61,15,30.9,25.49,68.88,8.27C836.48,612.38,846.46,584.22,839.55,568.81Z" transform="translate(-2.16 -14.6)"/><path class="cls-6" d="M681.2,849.39c16.78,14.09,46.13-6.29,63.89-31.55,16.86-24,17.3-47.53,7.2-57.2-10.35-9.91-34.73-8.47-58.55,20.14C666.73,813.2,669.66,839.7,681.2,849.39Z" transform="translate(-2.16 -14.6)"/><path class="cls-6" d="M899.88,717.1c-.76-21.9-35.54-30.09-66.19-26.39-29.1,3.51-46.9,18.93-47.34,32.9-.44,14.34,16.94,31.49,54.14,30.07C882.65,752.06,900.4,732.16,899.88,717.1Z" transform="translate(-2.16 -14.6)"/><rect class="cls-6" x="413.08" y="365.83" width="41.82" height="6.43" transform="translate(-103.99 160.95) rotate(-20.52)"/><rect class="cls-6" x="494.17" y="345.18" width="6.43" height="36.84" transform="matrix(1, -0.02, 0.02, 1, -8.43, -5.87)"/><polygon class="cls-6" points="598.55 385.45 593.12 382.01 569.82 418.8 529.12 434.77 531.46 440.76 574.12 424.02 598.55 385.45"/><polygon class="cls-6" points="663.9 494.11 658.09 491.36 645.53 517.85 616.58 527.42 618.6 533.53 650.16 523.08 663.9 494.11"/><polygon class="cls-6" points="729.36 612.26 724.38 608.21 704.91 632.17 676.03 637.56 677.21 643.88 708.41 638.05 729.36 612.26"/><polygon class="cls-6" points="787.28 717.23 785.92 710.95 756.41 717.3 744.45 745.13 750.36 747.67 761.01 722.89 787.28 717.23"/><path class="cls-6" d="M979,939.12c131.71-78.36,166.44-151.82,206.66-236.87,10.37-21.93,21.09-44.6,33.93-68.37,29.37-54.4,60.66-95.79,95.64-126.56,35.15-30.91,71.41-48.79,102.24-62.21,69.56-30.27,94.14-68.66,94.38-69l5.46,3.39c-1,1.64-25.7,40.39-97.28,71.54-76.18,33.16-135.33,75.82-194.79,185.93-12.75,23.62-23.43,46.21-33.77,68.06-40.67,86-75.79,160.29-209.19,239.65Z" transform="translate(-2.16 -14.6)"/><path class="cls-6" d="M1567.66,310.7c19.48,14.94,4.31,52-19,77.53-22.14,24.26-47.79,30.45-60.82,21.75-13.36-8.92-17.69-35.93,7.82-68.93C1524.56,303.65,1554.26,300.42,1567.66,310.7Z" transform="translate(-2.16 -14.6)"/><path class="cls-6" d="M1589.72,471.72c-.57,24.55-39.43,34.15-73.81,30.4-32.66-3.56-52.79-20.62-53.45-36.27-.68-16,18.57-35.48,60.27-34.36C1570,432.77,1590.11,454.84,1589.72,471.72Z" transform="translate(-2.16 -14.6)"/><path class="cls-6" d="M1414.23,309.36c23.46,7.22,22.15,47.23,9.2,79.3-12.29,30.46-34.17,45.2-49.41,41.59-15.63-3.7-29.11-27.51-16.71-67.33C1371.37,317.78,1398.08,304.4,1414.23,309.36Z" transform="translate(-2.16 -14.6)"/><path class="cls-6" d="M1471,559.74c-3.47,24.3-43.2,29.23-76.9,21.43-32-7.41-50-26.73-48.77-42.35,1.23-16,22.66-33,63.92-27C1456,518.72,1473.4,543,1471,559.74Z" transform="translate(-2.16 -14.6)"/><path class="cls-6" d="M1219.77,374.18c20.63-13.31,50.4,13.46,66.61,44,15.38,29,12.58,55.26,0,64.59-12.9,9.58-39.79,4.56-62.27-30.57C1198.62,412.39,1205.58,383.34,1219.77,374.18Z" transform="translate(-2.16 -14.6)"/><path class="cls-6" d="M1117.93,515c14.36-19.91,51.84-5.84,78.06,16.72,24.9,21.41,31.85,46.87,23.54,60.14-8.52,13.62-35.39,18.75-69.13-5.77C1112.15,558.26,1108.05,528.67,1117.93,515Z" transform="translate(-2.16 -14.6)"/><path class="cls-6" d="M1041.38,656.65c9.8-22.51,49.42-16.72,79.83-.25,28.88,15.64,41.08,39,35.78,53.77-5.43,15.12-30.61,25.84-68.78,9C1044.93,700.18,1034.64,672.13,1041.38,656.65Z" transform="translate(-2.16 -14.6)"/><path class="cls-6" d="M982.71,805.6c.51-21.91,35.2-30.48,65.89-27.13,29.14,3.19,47.11,18.41,47.7,32.38.61,14.32-16.58,31.67-53.79,30.66C1000.33,840.37,982.36,820.67,982.71,805.6Z" transform="translate(-2.16 -14.6)"/><rect class="cls-6" x="1441.47" y="431.45" width="6.43" height="41.82" transform="translate(525.87 1642.53) rotate(-70.12)"/><rect class="cls-6" x="1362.81" y="444.42" width="36.84" height="6.43" transform="translate(922.8 1811.42) rotate(-89.64)"/><polygon class="cls-6" points="1276.15 470.63 1281.54 467.13 1305.25 503.65 1346.13 519.17 1343.85 525.18 1301.01 508.92 1276.15 470.63"/><polygon class="cls-6" points="1212.02 580.01 1217.79 577.19 1230.65 603.54 1259.71 612.79 1257.76 618.92 1226.08 608.83 1212.02 580.01"/><polygon class="cls-6" points="1147.88 698.89 1152.82 694.78 1172.56 718.52 1201.49 723.59 1200.38 729.92 1169.12 724.44 1147.88 698.89"/><polygon class="cls-6" points="1091.15 804.5 1092.43 798.2 1122.01 804.22 1134.28 831.92 1128.4 834.52 1117.48 809.86 1091.15 804.5"/><ellipse class="cls-7" cx="846.23" cy="668.51" rx="389.83" ry="299.37"/><path class="cls-7" d="M567.5,674.94s57.31,221-97.12,322.88c0,0,246-1.53,289.62-368.67L636.3,605.84Z" transform="translate(-2.16 -14.6)"/><path class="cls-2" d="M787.43,607.49H584.86a9.47,9.47,0,1,1,0-18.93H787.43a9.47,9.47,0,0,1,0,18.93Z" transform="translate(-2.16 -14.6)"/><path class="cls-2" d="M878.29,607.49H827.94a9.47,9.47,0,0,1,0-18.93h50.35a9.47,9.47,0,0,1,0,18.93Z" transform="translate(-2.16 -14.6)"/><path class="cls-2" d="M1017.09,664.21H768.8a9.46,9.46,0,1,1,0-18.92h248.29a9.46,9.46,0,0,1,0,18.92Z" transform="translate(-2.16 -14.6)"/><path class="cls-2" d="M725.65,664.21H638.8a9.46,9.46,0,1,1,0-18.92h86.85a9.46,9.46,0,1,1,0,18.92Z" transform="translate(-2.16 -14.6)"/><path class="cls-2" d="M1125.27,720.93H957.87a9.46,9.46,0,0,1,0-18.92h167.4a9.46,9.46,0,1,1,0,18.92Z" transform="translate(-2.16 -14.6)"/><path class="cls-2" d="M915.45,720.93H806.75a9.46,9.46,0,0,1,0-18.92h108.7a9.46,9.46,0,0,1,0,18.92Z" transform="translate(-2.16 -14.6)"/><path class="cls-2" d="M764.14,720.93H584.86a9.46,9.46,0,1,1,0-18.92H764.14a9.46,9.46,0,0,1,0,18.92Z" transform="translate(-2.16 -14.6)"/><path class="cls-2" d="M903.58,777.53h0l-196.32-.13a9.46,9.46,0,0,1,0-18.92h0l196.32.13a9.46,9.46,0,1,1,0,18.92Z" transform="translate(-2.16 -14.6)"/><path class="cls-2" d="M661.79,777.53H638.53a9.46,9.46,0,1,1,0-18.92h23.26a9.46,9.46,0,0,1,0,18.92Z" transform="translate(-2.16 -14.6)"/><path class="cls-2" d="M1125.15,607.49H922.58a9.47,9.47,0,1,1,0-18.93h202.57a9.47,9.47,0,0,1,0,18.93Z" transform="translate(-2.16 -14.6)"/><ellipse class="cls-8" cx="1198.79" cy="889.04" rx="287.17" ry="220.54"/><path class="cls-8" d="M1082.74,1080.35s-9.79,38.79,5.65,81.61c0,0-117.32-43.34-10-293.67l59.39-3.94Z" transform="translate(-2.16 -14.6)"/><path class="cls-2" d="M1153.19,853.27H996.09a9.46,9.46,0,0,1,0-18.92h157.1a9.46,9.46,0,1,1,0,18.92Z" transform="translate(-2.16 -14.6)"/><path class="cls-2" d="M1223.65,853.27h-39a9.46,9.46,0,1,1,0-18.92h39a9.46,9.46,0,0,1,0,18.92Z" transform="translate(-2.16 -14.6)"/><path class="cls-2" d="M1289.46,897.26h-195a9.46,9.46,0,0,1,0-18.92h195a9.46,9.46,0,1,1,0,18.92Z" transform="translate(-2.16 -14.6)"/><path class="cls-2" d="M1063.45,897.26H996.09a9.46,9.46,0,1,1,0-18.92h67.36a9.46,9.46,0,1,1,0,18.92Z" transform="translate(-2.16 -14.6)"/><path class="cls-2" d="M1415.19,941.25H1285.37a9.46,9.46,0,1,1,0-18.92h129.82a9.46,9.46,0,1,1,0,18.92Z" transform="translate(-2.16 -14.6)"/><path class="cls-2" d="M1252.47,941.25h-84.3a9.46,9.46,0,0,1,0-18.92h84.3a9.46,9.46,0,1,1,0,18.92Z" transform="translate(-2.16 -14.6)"/><path class="cls-2" d="M1135.13,941.25h-139a9.46,9.46,0,1,1,0-18.92h139a9.46,9.46,0,0,1,0,18.92Z" transform="translate(-2.16 -14.6)"/><path class="cls-2" d="M1201.65,985.24h0l-152.25-.1a9.46,9.46,0,0,1,0-18.92h0l152.25.1a9.46,9.46,0,1,1,0,18.92Z" transform="translate(-2.16 -14.6)"/><path class="cls-2" d="M1014.13,985.24h-18a9.46,9.46,0,0,1,0-18.92h18a9.46,9.46,0,1,1,0,18.92Z" transform="translate(-2.16 -14.6)"/><path class="cls-2" d="M1415.09,853.27H1258a9.46,9.46,0,1,1,0-18.92h157.09a9.46,9.46,0,1,1,0,18.92Z" transform="translate(-2.16 -14.6)"/><path class="cls-9" d="M796.37,488.93l-2.49,4.93,12,5.11s9.56-10,11.86-12l-8.16-6.56-10.31,7.31Z" transform="translate(-2.16 -14.6)"/><path class="cls-10" d="M796.37,488.93l-2.49,4.93,12,5.11s9.56-10,11.86-12l-8.16-6.56-10.31,7.31Z" transform="translate(-2.16 -14.6)"/><path class="cls-2" d="M785,496.44a24.25,24.25,0,0,1,10.26-5.28s7.32,6.33,10.69,7.81a43.28,43.28,0,0,0,.21,16c1.73,9.19,5.74,26.62,4.84,27.39a7.42,7.42,0,0,1-5.43,1.74S787.54,525.1,785,496.44Z" transform="translate(-2.16 -14.6)"/><path class="cls-11" d="M808.32,543.79c-7.49-7.07-19.16-38.6-21.64-48.7a20.39,20.39,0,0,0-1.7,1.35c2.56,28.66,20.57,47.65,20.57,47.65A7,7,0,0,0,808.32,543.79Z" transform="translate(-2.16 -14.6)"/><path class="cls-8" d="M748,366.33s-49.24,35.55-44.44,60.28,38.15,52.23,93,61.74l7.61-12.44s-52.41-36.08-45.1-52.91S790,395,797,394.57s34.27,14,35.3,21-24.77,59.76-24.77,59.76l.73,13,14.19-2.64s61.89-64.66,59.4-81.63-46.81-40.38-46.81-40.38l-48.87-1.9Z" transform="translate(-2.16 -14.6)"/><path class="cls-10" d="M800.15,485.59l2.42-5.74s20.63,5.3,19.86,6.4-8.89,9.09-8.89,9.09Z" transform="translate(-2.16 -14.6)"/><path class="cls-2" d="M830.45,484.15a24.29,24.29,0,0,0-11.54-.29s-3.82,8.88-6.21,11.69A43.59,43.59,0,0,1,819.48,510c2.44,9,6.41,26.46,7.56,26.76a7.45,7.45,0,0,0,5.65-.81S840.63,511.06,830.45,484.15Z" transform="translate(-2.16 -14.6)"/><path class="cls-11" d="M827,483.48c6,18.75,5.14,45,2.79,53.49a6.91,6.91,0,0,0,2.88-1s7.94-24.93-2.24-51.84A23,23,0,0,0,827,483.48Z" transform="translate(-2.16 -14.6)"/><path class="cls-2" d="M798.86,486.54c-3.16-1.34-77.38-33.05-82.85-56.48S751.49,371,753.24,369.5l.57.66c-.43.37-42.31,36.74-36.95,59.7s81.57,55.55,82.34,55.87Z" transform="translate(-2.16 -14.6)"/><path class="cls-2" d="M814.94,483.59l-.43-.77c8.08-4.53,58.17-69.75,58.17-78.76,0-8.7-35.58-33.39-38.19-34.95l.45-.75c.39.23,38.62,26.06,38.62,35.7S823.52,478.77,814.94,483.59Z" transform="translate(-2.16 -14.6)"/><path class="cls-8" d="M792.59,490.39s14.56,5.16,15.22,4.94,9.65-10.09,10.2-14.7l-15-8.12S793.61,489,792.59,490.39Z" transform="translate(-2.16 -14.6)"/><path class="cls-12" d="M830.23,256.7c1.61.49,11.85,5.32,16.53,9l.73,61.59-11.26,16.24,9.51,13.17s.58,9.21-1.17,12.43-89,5.27-100.07,0c0,0-1.86-3.22,6-24.87l-1-7.46,4.68-27.21-15.21-10.68,3.22-34.67s9.3-7.11,25.94-10.87,43,3.35,43,3.35Z" transform="translate(-2.16 -14.6)"/><path class="cls-12" d="M773.17,352.29a19.46,19.46,0,0,1-1.35-16.06s-20.7,1.57-19.71-5.45,4.68-9.07,4.24-18.49-7-43.61-14.19-48.07c0,0-39.14,32.95-38.59,67.07S739.05,365.56,773.17,352.29Z" transform="translate(-2.16 -14.6)"/><path class="cls-9" d="M820.59,341.28c-1.7,0-6.85-1.6-6.85-1.6s-.28-6.07-6.75-11.86S791.47,325,791.47,325l2.75,12.29L803,348.68l15.89,2.13,5.7-2.16Z" transform="translate(-2.16 -14.6)"/><path class="cls-13" d="M820.59,341.28c-1.7,0-6.85-1.6-6.85-1.6s-.28-6.07-6.75-11.86S791.47,325,791.47,325l2.75,12.29L803,348.68l15.89,2.13,5.7-2.16Z" transform="translate(-2.16 -14.6)"/><path class="cls-14" d="M777.56,356.75c1.69,3.49,25.64,2.85,26.3.88s7.24-34.46,4.83-36.54-29.23-2.85-31.13-1.32S776.49,354.56,777.56,356.75Z" transform="translate(-2.16 -14.6)"/><path class="cls-10" d="M768.71,338.39l3.11-2.16s0-8.08,4.61-10.06v9.29s14.59-6.29,22.64-6.65,7.6,6-.66,7.17c0,0,8.92-2.56,9.58,2.12s-11.48,3.51-11.48,3.51,9.36,1.39,8.85,4.46-10.24,1.32-10.24,1.32,8.41,4.61,7,6.36-8-.51-12.15-1.75-16.24-.74-19.16-1.32S768.71,338.39,768.71,338.39Z" transform="translate(-2.16 -14.6)"/><path class="cls-12" d="M846.76,265.68s24.14,17.12,30.72,52.52-22.82,51.06-62.76,34.09c0,0,1.69-8.92,1.38-13.19,0,0,20.71-5.68,23.64-10.22S827.45,285.87,846.76,265.68Z" transform="translate(-2.16 -14.6)"/><path class="cls-2" d="M775.62,304.33c-7.19-16.16.78-37.51,1.12-38.41l1.64.62c-.08.21-8,21.58-1.15,37.08Z" transform="translate(-2.16 -14.6)"/><path class="cls-2" d="M823,303.12l-1.68-.49c4.47-15.11-4.27-36.4-4.36-36.61l1.62-.68C819,266.24,827.67,287.43,823,303.12Z" transform="translate(-2.16 -14.6)"/><path class="cls-11" d="M818.08,305.41a3.73,3.73,0,0,1,4.41-2.81,2.71,2.71,0,0,1,2.09,3.34c-.35,1.56-1.24,2.63-3.65,2.68A2.7,2.7,0,0,1,818.08,305.41Z" transform="translate(-2.16 -14.6)"/><path class="cls-11" d="M774.29,306.31a3.73,3.73,0,0,1,4.41-2.81,2.71,2.71,0,0,1,2.1,3.34c-.36,1.56-1.25,2.63-3.66,2.67A2.69,2.69,0,0,1,774.29,306.31Z" transform="translate(-2.16 -14.6)"/><path class="cls-15" d="M805.83,237.92c5.16-1.65,30,5.29,32.26,18.78s-31.82,18.74-37.19,18.85c0,0-49.6,3.84-50.37-14.7s31.05-25,31.05-25L798,240.31Z" transform="translate(-2.16 -14.6)"/><path class="cls-12" d="M819.72,239.13s7.78,25.67-16.79,35.22c0,0-48.37-12.51-27-32.37S819.72,239.13,819.72,239.13Z" transform="translate(-2.16 -14.6)"/><path class="cls-10" d="M780.8,218c-3,3.51-5.71,20.08-.44,32.69s25.34,19,34.78,1.32a39.18,39.18,0,0,0,1.21-34Z" transform="translate(-2.16 -14.6)"/><path class="cls-10" d="M817.37,237.89c.44-.66,2.27-4.68,5.2-3.29s-1.61,12.84-5.49,11.79l-1.61-5.5Z" transform="translate(-2.16 -14.6)"/><path class="cls-10" d="M779.5,237.89c-.44-.66-2.27-4.68-5.2-3.29s1.61,12.84,5.49,11.79l1.61-5.5Z" transform="translate(-2.16 -14.6)"/><path class="cls-11" d="M779.09,221.55a41.53,41.53,0,0,0,39.48,7.67c16.4-5.08-3.85-38.06-33.71-23.75,0,0-2.9-1.36-8,3.63-6.16,6.05-7.17,19,.53,26.9A46.21,46.21,0,0,1,779.09,221.55Z" transform="translate(-2.16 -14.6)"/><path class="cls-10" d="M892.94,816.76s-9,3.42-6.2,16.87L898.92,839s20-2.34,20.5-15.48c0,0-4.91-2.46-7.26-9.72s-10.25-3.84-10.25-3.84Z" transform="translate(-2.16 -14.6)"/><g class="cls-16"><path class="cls-10" d="M892.94,816.76l9-6.83s7.9-3.42,10.25,3.84a18.28,18.28,0,0,0,5.27,8.29c-9.72,5.2-26,11.19-28.7-1.81A10.49,10.49,0,0,1,892.94,816.76Z" transform="translate(-2.16 -14.6)"/></g><polygon class="cls-10" points="895.43 1146.01 897.57 1152.84 896.18 1156.68 889.35 1157.39 884.97 1156.75 885.71 1153.42 886.72 1146.89 895.43 1146.01"/><path class="cls-17" d="M899.74,1167.44s7.07,13.82,4.36,26.49c0,0-40.77,5-59.89-4.12,0,0-2.81-6.41,0-9.83s29.57-6.26,43.66-12C887.87,1168,888.44,1173.72,899.74,1167.44Z" transform="translate(-2.16 -14.6)"/><path class="cls-8" d="M899.74,1167.44s7.07,13.82,4.36,26.49c0,0-40.77,5-59.89-4.12,0,0-2.81-6.41,0-9.83s29.57-6.26,43.66-12C887.87,1168,888.44,1173.72,899.74,1167.44Z" transform="translate(-2.16 -14.6)"/><polygon class="cls-10" points="920.36 1154.64 917.25 1135.76 911.7 1141.13 908.5 1155.23 908.5 1161.29 917.25 1161.29 920.36 1154.64"/><path class="cls-18" d="M870.51,935.28a162.5,162.5,0,0,0-1.77,57.23c4.76,30.53,10.32,50.61,10.74,53S884,1145.4,888,1164.84c0,0,6.4.28,10.67-2.28,0,0,3.85-38.94,4.06-74s0-81.15,0-81.15l2-19.64-6.87-34Z" transform="translate(-2.16 -14.6)"/><path class="cls-11" d="M873.46,797.11s-31.78-5.34-11.28-35l21.57,12.17Z" transform="translate(-2.16 -14.6)"/><path class="cls-10" d="M873.93,767c-6.62,7.48-5.34,33.32.43,42.07h6.19s8.54,25.84,35,8.33L926,800.32l-7.26-25-22.21-4.7Z" transform="translate(-2.16 -14.6)"/><path class="cls-11" d="M907.46,785.79s-38.66,6.2-45.28-23.7a124,124,0,0,0,35.58-5.7c18.79-6,39.38,1.22,39.59,32.18.2,28.41,59.61,45.8,52.54,76.45-4.49,19.43-21.14,15.59-24.35,36.88-3.69,24.55,33.31,57.08-21.78,68.82l-17.47-36.08,11.92-43.78-14.31-45.7-4.48-21.67s-12-2.25-8.78-26.38Z" transform="translate(-2.16 -14.6)"/><path class="cls-12" d="M945.26,935.7s6.75,21.21-2.35,53.6c-7.26,25.84-26.41,51.89-26.41,51.89s22.78,31.89,6,122.44c0,0-2.32,4.27-11.84,1.42,0,0-8.52-87.13-27.74-115.53,0,0,15.38-64.7,10-91.47,0,0-19.62-9.39-23.62-21.35S886,927,886,927l47.92,4.27Z" transform="translate(-2.16 -14.6)"/><path class="cls-10" d="M905,789.63s1-7,7.18-5.27,4.92,16.87-3,17.47l-3.43-4.05Z" transform="translate(-2.16 -14.6)"/><polygon class="cls-10" points="861.59 908.88 854.9 901.18 863.58 893.49 867.32 899.53 863.01 907.15 861.59 908.88"/><path class="cls-2" d="M868.09,828.79c-3.84,1.42-32.74,39-33.17,54.52S860,921.75,860,921.75s2.78-7.91,9.5-9.82c0,0-10.52-21.54-2.53-38.72V858.4l4.85-20.79Z" transform="translate(-2.16 -14.6)"/><path class="cls-2" d="M939.06,913.2s5.55,20.79,6.2,22.5c0,0-37,15.38-70-3.41,0,0-2.56-7.37-2.56-8.81s9.15-15.6,1.66-44.15c0,0-9.35-3.42-12.12-10.68,0,0,7.11-27.19,5.9-39.86l19.4-6.43s-4.56,8.28,9.84,9.13,22.09-8,22.09-8l27.83,13.56-2.64,28.82Z" transform="translate(-2.16 -14.6)"/><path class="cls-10" d="M869.48,914.13c4.06-2.74,14.7,1.07,14.49,4.7s-7.24,1.71-7.24,1.71,9.17,1.92,7.88,6.41-9.61,0-9.61,0,6.83,3.63,3.63,6.83-6.83-1.49-6.83-1.49,3.63,3.41,1.7,4.91-9.6-1.92-11.1-9.61S867.59,915.42,869.48,914.13Z" transform="translate(-2.16 -14.6)"/><path class="cls-10" d="M874.36,907.66c-.59-4.14,4.55-7.9,6.62-4.34S875.21,913.64,874.36,907.66Z" transform="translate(-2.16 -14.6)"/><path class="cls-10" d="M904.89,866.09l5.75,4.27v9.9h-5.1a23.83,23.83,0,0,0-3.85-6.06,33.94,33.94,0,0,1-3.93-5.55Z" transform="translate(-2.16 -14.6)"/><path class="cls-2" d="M947.25,837.05c1.9-.38,10,16.08,7.83,36.58s-7.83,54.1-26.91,49.4-24.63-43.42-24.63-43.42,5.13-5.41,5-12c0,0,9.6,6.55,13.81,12.61C922.34,880.26,925.61,841.32,947.25,837.05Z" transform="translate(-2.16 -14.6)"/><path class="cls-2" d="M843.15,1186.14a242.17,242.17,0,0,0,41.59,1.77l-3.94,7.38c-12.47.07-27.16-1-36.59-5.48A17.53,17.53,0,0,1,843.15,1186.14Z" transform="translate(-2.16 -14.6)"/><path class="cls-8" d="M922.53,1169.24s7.07,13.83,4.36,26.5c0,0-40.77,5-59.89-4.13,0,0-2.81-6.41,0-9.82s29.57-6.27,43.66-12C910.66,1169.83,911.23,1175.52,922.53,1169.24Z" transform="translate(-2.16 -14.6)"/><path class="cls-2" d="M865.94,1187.91c21.1,6,49.18,3.46,61.56,2a29,29,0,0,1-.61,5.84s-40.77,5-59.89-4.13A17.24,17.24,0,0,1,865.94,1187.91Z" transform="translate(-2.16 -14.6)"/><path class="cls-14" d="M889.79,846.83s-3.17-11.23-4.1-11.91-19.72-.49-19.82,0S871.31,852,871.31,852s9.6,27.47,10.09,27.78,18.06,4.12,18.74,3.33-5.56-19.82-5.56-19.82Z" transform="translate(-2.16 -14.6)"/><path class="cls-10" d="M904.89,866.09s-1.35-22.63-8.91-21c-3.35.71,1.78,11.7,1.78,11.7s-10.59-6.27-21-7.55-11.9,3.63-7.23,4.48a40.72,40.72,0,0,1,8.08,2.35s-8.11-.42-9.61,1.5,3.42,4.05,5.34,7.26,1.28,6,4.27,6.62,24.13,2.77,24.13,2.77Z" transform="translate(-2.16 -14.6)"/><path class="cls-2" d="M917.68,1166.43a.46.46,0,0,0,.45-.36c9.25-42-11.64-119.09-12.91-123.71C938,995.89,935.92,939.3,935.9,938.73a.48.48,0,0,0-.48-.44.47.47,0,0,0-.44.48c0,.57,2.09,57-30.64,103.23l-.12.18.06.22c.22.8,22.4,80.63,13,123.47a.45.45,0,0,0,.35.55Z" transform="translate(-2.16 -14.6)"/><path class="cls-2" d="M933.85,964.8a.47.47,0,0,0,.44-.32.46.46,0,0,0-.29-.58c-22-7.47-17.71-21.62-17.51-22.22a.46.46,0,0,0-.88-.28c-.05.15-4.82,15.6,18.09,23.37Z" transform="translate(-2.16 -14.6)"/><path class="cls-2" d="M911,1177.8a.33.33,0,0,0,.25-.12.32.32,0,0,0-.05-.45c-.22-.17-5.34-4.26-11.74-4.26a.35.35,0,0,0-.4.32.33.33,0,0,0,.32.31h.08c6.17,0,11.29,4.09,11.34,4.13A.31.31,0,0,0,911,1177.8Z" transform="translate(-2.16 -14.6)"/><path class="cls-2" d="M905.7,1178.84a.33.33,0,0,0,.27-.14.32.32,0,0,0-.1-.44,30,30,0,0,0-11.42-4.13.31.31,0,0,0-.35.28.32.32,0,0,0,.28.36,29.48,29.48,0,0,1,11.15,4A.34.34,0,0,0,905.7,1178.84Z" transform="translate(-2.16 -14.6)"/><path class="cls-2" d="M900.06,1178.84a.31.31,0,0,0,.29-.19.32.32,0,0,0-.17-.42,53.88,53.88,0,0,0-10.39-3.16.31.31,0,0,0-.36.26.32.32,0,0,0,.26.37,52.53,52.53,0,0,1,10.24,3.12Z" transform="translate(-2.16 -14.6)"/><path class="cls-2" d="M885.64,1173.72a.33.33,0,0,0,.29-.18.31.31,0,0,0-.15-.42,26.25,26.25,0,0,0-8.2-2.25.29.29,0,0,0-.34.29.31.31,0,0,0,.29.34,26,26,0,0,1,8,2.19A.35.35,0,0,0,885.64,1173.72Z" transform="translate(-2.16 -14.6)"/><path class="cls-2" d="M881,1174.89a.32.32,0,0,0,.09-.63c-.06,0-5.68-1.68-9-2.24a.32.32,0,1,0-.11.63c3.27.55,8.86,2.21,8.92,2.22Z" transform="translate(-2.16 -14.6)"/><path class="cls-2" d="M874.92,1176a.31.31,0,0,0,.3-.22.33.33,0,0,0-.21-.4s-4.63-1.49-7.63-2.14a.32.32,0,0,0-.37.25.32.32,0,0,0,.24.38c3,.64,7.52,2.1,7.57,2.12Z" transform="translate(-2.16 -14.6)"/><path class="cls-12" d="M1246.78,1093.67s11.45-9.37,23.46-12.26a47.68,47.68,0,0,1,22.3.11l12.7-3s23.08,4.82,33.9,15.58l0,23.77s-2.18,20.24-2.5,20.58-10.4,5.88-10.4,5.88l-4,13.29-1.14,6.29-2.38,17.73-27.77.72L1253.5,1172l-11-43Z" transform="translate(-2.16 -14.6)"/><path class="cls-19" d="M1250.67,1177.14c-.45-.27-22.2-11.56-37.2-2.66s-8,28.93-8,28.93l24.51,2.93s31.67-.55,33.54-1.28,10.15-17.12,10.15-17.12l-17.78-10.56Z" transform="translate(-2.16 -14.6)"/><path class="cls-10" d="M1245.28,1200.32a47.16,47.16,0,0,1-14.61-1l.58,15,13.23-.51Z" transform="translate(-2.16 -14.6)"/><path class="cls-8" d="M1204.33,1187.75s-11.2,12.37-.83,28.62l30.92-2.17s-4-5-1.85-14.46C1232.57,1199.74,1216.85,1184.32,1204.33,1187.75Z" transform="translate(-2.16 -14.6)"/><path class="cls-2" d="M1212.3,1187.74c-5.1,4-11,12.51-5.38,28.39l-3.42.24c-10.37-16.25.83-28.62.83-28.62A16.65,16.65,0,0,1,1212.3,1187.74Z" transform="translate(-2.16 -14.6)"/><path class="cls-10" d="M1307.94,1134.71c-.22-.1-7.61-4.21-7.61-4.21s-2.88,7.68-3.12,8.56,5,4.19,5,4.19Z" transform="translate(-2.16 -14.6)"/><path class="cls-14" d="M1297.62,1151.05c-.18.87-17.49,1-18.16.69s-4.36-37.51-3.71-37.72,21.86-1.39,22.75-.87S1298.11,1148.69,1297.62,1151.05Z" transform="translate(-2.16 -14.6)"/><path class="cls-10" d="M1302.44,1133.39c.29-.34,1.89-10.7-3.63-15.74l-.12,9.86s-13.52,0-22.68-3.74-3.33,4,2.54,5.71c0,0-6.62-1.12-7.29,1.21s15.56,16.31,27,10.09l3.59-5.18Z" transform="translate(-2.16 -14.6)"/><path class="cls-10" d="M1304,1077.31s4.06,3,3,7.85-10.14,21.2-21.21,24c0,0-20.53-15.42-15.13-29.07s13.38-7.16,13.38-7.16Z" transform="translate(-2.16 -14.6)"/><g class="cls-16"><path class="cls-10" d="M1270.69,1080.05c5.39-13.64,13.38-7.16,13.38-7.16l20,4.42a8.3,8.3,0,0,1,1.21,1.19h0s-2.42,15.54-18.27,17.28C1272.64,1097.36,1269.85,1082.16,1270.69,1080.05Z" transform="translate(-2.16 -14.6)"/></g><path class="cls-10" d="M1305.38,1045.79s13,39.08-16.85,44.46-19.81-44.37-19.81-44.37l22.75-4.67Z" transform="translate(-2.16 -14.6)"/><path class="cls-10" d="M1268.38,1064.44s-2.32-3.56-6.22-2.25,2.6,18.16,8.63,15.59S1268.38,1064.44,1268.38,1064.44Z" transform="translate(-2.16 -14.6)"/><path class="cls-11" d="M1302.63,1048.45s-12,20.94-35.54,14.63-10.71-20.89-10.71-20.89,2.38,3,4.35,3,11.28-22.05,32.12-19.34,14.45,9.31,14.45,9.31,4.34-1.19,8.2,4.28,4.12,21.19-3.91,25.62l-3.45-3.67A41.38,41.38,0,0,0,1302.63,1048.45Z" transform="translate(-2.16 -14.6)"/><path class="cls-10" d="M1306.76,1063s2-3.73,6-2.71-1.2,18.3-7.42,16.2S1306.76,1063,1306.76,1063Z" transform="translate(-2.16 -14.6)"/><path class="cls-20" d="M1240.26,1198.86s-1.19,10.86.63,16.48c0,0,73.41,6.25,102.74-3.93s33.37-23,22.49-32.63S1313.21,1166.42,1240.26,1198.86Z" transform="translate(-2.16 -14.6)"/><path class="cls-10" d="M1337.61,1200.63s-12.7,14.72-16.78,15.21l16-.65,5.32-3,.57-7Z" transform="translate(-2.16 -14.6)"/><path class="cls-8" d="M1364.85,1186.51s12.11,11.48,3,28.48l-31,.2s3.59-5.32.74-14.56C1337.61,1200.63,1352.09,1184,1364.85,1186.51Z" transform="translate(-2.16 -14.6)"/><path class="cls-2" d="M1356.9,1187.11c5.38,3.59,12,11.63,7.53,27.9l3.43,0c9.1-17-3-28.48-3-28.48A16.59,16.59,0,0,0,1356.9,1187.11Z" transform="translate(-2.16 -14.6)"/><path class="cls-10" d="M1301.21,1179.47s6.87,3.92,10.19,9.44,4.83,11.78,4.24,16.77-2.81,10.32-4.06,10.86-1.42-1.7-1.42-1.7-.9,7-4.18,7.75-1.88-5.77-1.88-5.77.22,5.71-1.91,6-8.06-14.71-4.77-33C1297.42,1189.74,1296.75,1182.37,1301.21,1179.47Z" transform="translate(-2.16 -14.6)"/><path class="cls-10" d="M1311.47,1193.28s6.26,5.8,9.59,6.35c0,0-.89,4.84-8.53,1.08S1311.47,1193.28,1311.47,1193.28Z" transform="translate(-2.16 -14.6)"/><polygon class="cls-10" points="1295.26 1175.13 1292.22 1174.47 1285.51 1169.47 1291.86 1165.14 1294.81 1163.47 1297.14 1163.38 1299.05 1164.87 1305.02 1173.49 1295.26 1175.13"/><path class="cls-12" d="M1301.14,1177.47s-6.23,3.09-5.54,12.48c0,0-60.19,1.43-74.93-23s21.23-69.06,26.11-73.3c0,0,19.68,40.77,11.89,59.69C1258.67,1153.36,1298.43,1175.46,1301.14,1177.47Z" transform="translate(-2.16 -14.6)"/><path class="cls-12" d="M1307,1132s-5.82,7.35-6.18,12.18c0,0,23.18,33.4,48.86,31.76s11.24-61.12-10.58-81.86c0,0-17.18,20.49-11.37,46.33A128.92,128.92,0,0,1,1307,1132Z" transform="translate(-2.16 -14.6)"/><path class="cls-2" d="M1345.1,1213.15c.08-.27,1.72-6.64-1.08-12.22l-.78.39c2.65,5.28,1,11.55,1,11.61Z" transform="translate(-2.16 -14.6)"/><path class="cls-2" d="M1350,1213c.08-.33,1.89-8.17-2.25-14.29l-.73.49c3.93,5.8,2.15,13.51,2.13,13.59Z" transform="translate(-2.16 -14.6)"/><path class="cls-2" d="M1229.06,1212.61l.85-.23c-2.19-7.85-.34-11.46-.32-11.49l-.77-.42C1228.74,1200.62,1226.77,1204.38,1229.06,1212.61Z" transform="translate(-2.16 -14.6)"/><path class="cls-2" d="M1224,1212.76l.82-.29c-3-8.54,1.82-13.22,1.87-13.27l-.6-.64C1226.07,1198.61,1220.81,1203.69,1224,1212.76Z" transform="translate(-2.16 -14.6)"/><path class="cls-2" d="M1295.47,1188.26l.19-.85c-.63-.14-62.83-14.1-67.48-28.25s21.88-57.62,22.15-58.05l-.75-.46c-1.1,1.8-27,44.2-22.23,58.78S1292.88,1187.69,1295.47,1188.26Z" transform="translate(-2.16 -14.6)"/><path class="cls-2" d="M1347.51,1169.85a9.5,9.5,0,0,0,5.29-1.39c13-8.44-13.48-70.14-14.61-72.77l-.8.35c.27.64,27.28,63.65,14.93,71.68a8.68,8.68,0,0,1-4.83,1.27c-15.34,0-45.71-26.48-46-26.78l-.58.66C1302.27,1144.11,1331.8,1169.84,1347.51,1169.85Z" transform="translate(-2.16 -14.6)"/><path class="cls-8" d="M1247.7,547.89s56.36,73.19,39,87.21l-28.39-14.41-11.15-27.55-2.73-29.65Z" transform="translate(-2.16 -14.6)"/><polygon class="cls-10" points="1227.94 767.92 1230.04 774.97 1237.51 774.02 1236.66 764.66 1227.94 767.92"/><path class="cls-2" d="M1231.59,787.5s.47,2.09,4.27,1.6,3.81-3.53,3.81-3.53,4.2,6.42,4.84,11.25-5,35.34-17.25,28.82S1231.59,787.5,1231.59,787.5Z" transform="translate(-2.16 -14.6)"/><path class="cls-11" d="M1244.51,796.82a17,17,0,0,0-.8-3.14c-2,8.94-7.27,24.74-10.07,27.75s-4.84,2.21-10.07-.15a7.81,7.81,0,0,0,3.69,4.36C1239.56,832.16,1245.14,801.66,1244.51,796.82Z" transform="translate(-2.16 -14.6)"/><path class="cls-10" d="M1284.36,735.52l3.05,4c4.92,2.48,7.06,1.78,5.71-2.95l-2.45-7Z" transform="translate(-2.16 -14.6)"/><path class="cls-2" d="M1287.41,739.52s-2.91,6.52,1.33,14.72c0,0,27,12,35.68,5.57s-13.7-20.82-31.3-23.24C1293.12,736.57,1294.14,739.52,1287.41,739.52Z" transform="translate(-2.16 -14.6)"/><path class="cls-11" d="M1288.74,754.24s27,12,35.68,5.57a4.21,4.21,0,0,0,1.48-5.51,13.51,13.51,0,0,1-5.16,3.83c-6.34,2.72-26.39-4.24-33.59-7.92A20.86,20.86,0,0,0,1288.74,754.24Z" transform="translate(-2.16 -14.6)"/><path class="cls-9" d="M1220.92,528.83s-.7,7.85.56,9,8.55,4.63,8.55,4.63l-5.94,6.86H1209l-8.76-2.38-1.76-3.5s7.29-3.51,8-4.35.42-12.9.42-12.9Z" transform="translate(-2.16 -14.6)"/><path class="cls-11" d="M1232.94,514.59s.73,22.19,7.57,33.13-15.46.73-15.46.73l-8.2-10V524.69l10.41-12.62Z" transform="translate(-2.16 -14.6)"/><path class="cls-21" d="M1194.88,516.7l-10.41,18.57,11.49,8.14h9.39s4.77-5.61,4.63-5.68-1.25-11.22-1.25-11.22Z" transform="translate(-2.16 -14.6)"/><path class="cls-10" d="M1220.92,528.83s-.7,7.85.56,9,8.55,4.63,8.55,4.63l-5.94,6.86H1209l-8.76-2.38-1.76-3.5s7.29-3.51,8-4.35.42-12.9.42-12.9Z" transform="translate(-2.16 -14.6)"/><g class="cls-16"><path class="cls-10" d="M1220.92,528.83l-14-2.67s.11,5.09,0,8.88a26.47,26.47,0,0,0,14.19,2.06C1220.38,534.85,1220.92,528.83,1220.92,528.83Z" transform="translate(-2.16 -14.6)"/></g><path class="cls-10" d="M1231.26,499.87s3.68,32.18-17.25,32.81-25.55-27.86-25.55-27.86l11.36-15.25,15.77-4Z" transform="translate(-2.16 -14.6)"/><path class="cls-10" d="M1229.47,507.55s3.68-8.31,7.46-6.1,1.79,15.56-8.51,15.25S1229.47,507.55,1229.47,507.55Z" transform="translate(-2.16 -14.6)"/><path class="cls-11" d="M1196,476c2.65-5.58,9.67-9,21.56-5.25s30.89,24.5,13.81,33.44S1189.2,490.41,1196,476Z" transform="translate(-2.16 -14.6)"/><path class="cls-11" d="M1198.55,475.27s-5.17-1.78-12.56,7c-9,10.65-23.68,54.82-8.4,83.28l22.65-21a147.3,147.3,0,0,1-.76-51.27Z" transform="translate(-2.16 -14.6)"/><path class="cls-8" d="M1180.4,551.54c3.36-2.95,21.45-9.81,21.45-9.81s4.06,7.28,14,5.6,9-7.5,9-7.5l22.82,8.06s.14,17.25,10.93,30.85c0,0-3.64,14.16-11.78,21,0,0-1.68,21.45,3.51,28s10.93,23,8.27,40.13l-8.69-5.08-18.09-15.56-26.5,3.36-26.6,10.73s15.67-36.81,17.35-44.8-13.32-27.34-13.32-27.34Z" transform="translate(-2.16 -14.6)"/><polygon class="cls-10" points="1213.11 566.45 1207.22 574.44 1206.43 578.5 1211.85 579.75 1216.9 572.73 1213.11 566.45"/><path class="cls-8" d="M1210,586.65s2.4,5.45,5.76,7.07c0,0-21.09,45.38-47,42.85s-6.12-71,11.69-85c0,0,19.67,6.5,8.83,38.69-5.89,17.49-4.24,19.37-4.24,19.37Z" transform="translate(-2.16 -14.6)"/><path class="cls-8" d="M1286.15,631.42l.52,3.68s-5.47,6.52-46.48,0c0,0-9.32-4.2-10.16-9,0,0,18.82-4.16,28.32-7.57,6.75-2.42,19.07.42,19.07.42l6.62,9Z" transform="translate(-2.16 -14.6)"/><path class="cls-22" d="M1228.35,670.72S1210,709,1184.47,695c-29.23-16.07,4.76-61.41,49.84-69.82,0,0,41.45,50.47,58.81,108.79,0,0-6.45,5-8.69,4.21C1284.43,738.15,1233.39,681.24,1228.35,670.72Z" transform="translate(-2.16 -14.6)"/><path class="cls-23" d="M1211,692.43s2.47,58.62,19,93.11c0,0,5.59,2.8,10.08-2.81,0,0,5.37-88.51,0-109.2-4.94-19.06-20.8-16.54-24.92-8.76C1209.11,676.29,1211,692.43,1211,692.43Z" transform="translate(-2.16 -14.6)"/><path class="cls-2" d="M1216.07,558.08a2.54,2.54,0,0,1-2.32-1.7,2.36,2.36,0,0,1,1.22-2.7,1.25,1.25,0,0,1,.73-.24c.91,0,1.65.93,2,1.8a2.11,2.11,0,0,1-.49,2.47A1.67,1.67,0,0,1,1216.07,558.08Zm-.37-3.8a.46.46,0,0,0-.24.08c-.79.55-1.1,1.16-.91,1.77.26.81,1.49,1.41,2.09.93s.31-1.29.22-1.54C1216.62,554.84,1216.1,554.28,1215.7,554.28Z" transform="translate(-2.16 -14.6)"/><path class="cls-2" d="M1227.8,605.5a2.56,2.56,0,0,1-2.32-1.7,2.37,2.37,0,0,1,1.22-2.71,1.25,1.25,0,0,1,.73-.24c.91,0,1.65.94,2,1.8a2.14,2.14,0,0,1-.49,2.48A1.73,1.73,0,0,1,1227.8,605.5Zm-.37-3.81a.4.4,0,0,0-.24.09c-.79.55-1.1,1.16-.91,1.76.26.82,1.49,1.4,2.08.93s.31-1.29.23-1.54C1228.35,602.25,1227.83,601.69,1227.43,601.69Z" transform="translate(-2.16 -14.6)"/><path class="cls-2" d="M1223.77,621.9a2.54,2.54,0,0,1-2.32-1.7c-.15-.45-.31-1.63,1.22-2.7a1.25,1.25,0,0,1,.73-.24c.91,0,1.65.93,1.95,1.8a2.12,2.12,0,0,1-.49,2.47A1.73,1.73,0,0,1,1223.77,621.9Zm-.37-3.8a.46.46,0,0,0-.24.08c-.79.55-1.1,1.16-.91,1.77.26.81,1.49,1.4,2.09.93s.3-1.29.22-1.54C1224.32,618.66,1223.8,618.1,1223.4,618.1Z" transform="translate(-2.16 -14.6)"/><path class="cls-2" d="M1227.86,628.6l-.78-.3c.05-.14,5.3-13.9,5.85-36.22s-16.24-44.46-16.41-44.68l.66-.51c.18.22,17.15,22.66,16.59,45.21S1227.92,628.47,1227.86,628.6Z" transform="translate(-2.16 -14.6)"/><path class="cls-14" d="M1218.81,602.18c.2.83,16.82.35,17.45,0s2.81-36.17,2.18-36.34-21-.53-21.88,0S1218.25,599.94,1218.81,602.18Z" transform="translate(-2.16 -14.6)"/><path class="cls-10" d="M1213.53,585.41c-.29-.31-2.2-10.2,2.91-15.24l.48,9.46s13-.53,21.63-4.42,3.34,3.68-2.23,5.57c0,0,6.31-1.32,7,.9s-13.41,14.54-24.61,9l-4.57-3.16Z" transform="translate(-2.16 -14.6)"/><path class="cls-23" d="M1237.47,796.11c-4.94,0-7.47-1.36-7.57-1.42l.4-.74s2.65,1.4,7.7,1.32l0,.84Z" transform="translate(-2.16 -14.6)"/><path class="cls-23" d="M1237,800.31c-6-.31-8.1-1.47-8.19-1.52l.42-.73-.21.36.21-.36s2,1.11,7.81,1.41Z" transform="translate(-2.16 -14.6)"/><rect class="cls-23" x="1293" y="741.85" width="8.21" height="0.84" transform="translate(-176.85 987.05) rotate(-39.78)"/><path class="cls-23" d="M1299.16,746.91l-.52-.66a52.45,52.45,0,0,0,6.13-5.58l.66.51A51.23,51.23,0,0,1,1299.16,746.91Z" transform="translate(-2.16 -14.6)"/><ellipse class="cls-5" cx="433.31" cy="1202.16" rx="100.62" ry="10.68"/><path class="cls-24" d="M378.34,1191.84s-9.48,12.8-11.41,15.76-1,9.26-1,9.26,3.93,4.25,20,.22l5-13.3-1.86-12.13Z" transform="translate(-2.16 -14.6)"/><path class="cls-2" d="M365.73,1212.25a25.73,25.73,0,0,0,.2,4.61s3.93,4.25,20,.22l1.11-2.95A87.81,87.81,0,0,1,365.73,1212.25Z" transform="translate(-2.16 -14.6)"/><path class="cls-12" d="M396.79,1193.92s8.07,12.84,8.38,17.51-.7,6.33-.7,6.33-11.74,4.19-22.1.4a11.2,11.2,0,0,1-.94-7.12c.74-4.22,6.65-20.35,6.65-20.35l6.41-.82Z" transform="translate(-2.16 -14.6)"/><path class="cls-11" d="M416.58,1003.93c6.47.6,38.49-5.95,45.67-35.55S447.39,928.44,449,915s14.22-31.2,2.61-52.74S418.92,841.4,422.09,823s4.09-38.45-11.16-41.69-31.33,6.18-39.49,8.08-20.13-.69-24.77,14.48,8.31,32.48-1.26,47-31.65,34.48-31,50.84,17,31.51,15.21,45.92-34.76,56.76,20.8,64.18Z" transform="translate(-2.16 -14.6)"/><path class="cls-20" d="M359.62,957.78s-12.24,21.79-12.85,46S376.5,1193.4,376.5,1193.4a13.34,13.34,0,0,0,9.12-.17l7.62-12.77,6.86-98.35-1.55-86.27Z" transform="translate(-2.16 -14.6)"/><path class="cls-22" d="M412,962.27s10.64,19.22,11.21,37.92-25.28,193.6-25.28,193.6-7,1.33-12.28-.56c0,0,3.86-135.84-3-165.18s-29.55-55.43-29.55-55.43,4.48-11.65,6.53-14.84S412,962.27,412,962.27Z" transform="translate(-2.16 -14.6)"/><path class="cls-10" d="M378.69,847.8s2.76,16.91-1.62,20.61A40.75,40.75,0,0,1,367,874.32l10.68,15.13,19.67.93L408.42,873l-3.73-3.56s-7.51-1.27-8.62-4.52-1.48-17.4-1.48-17.4Z" transform="translate(-2.16 -14.6)"/><g class="cls-16"><path class="cls-10" d="M395.33,860.49c-.48-4.71-.69-11.19-.74-12.67l-2.35-.27-13.55.25a77.44,77.44,0,0,1,.81,8.43A33.75,33.75,0,0,0,395.33,860.49Z" transform="translate(-2.16 -14.6)"/></g><path class="cls-10" d="M366.09,810.66c-1.46,6.7-7.5,41.18,19.9,43.32s20.8-43.17,20.8-43.17l-26.63-17.59-10.57,7Z" transform="translate(-2.16 -14.6)"/><path class="cls-10" d="M405,827.78s1.42-6.85,5.4-5.51-1.83,15.94-5.25,14.91S405,827.78,405,827.78Z" transform="translate(-2.16 -14.6)"/><path class="cls-10" d="M367.18,828.46s-1.66-6.79-5.59-5.31S364,839,367.37,837.86,367.18,828.46,367.18,828.46Z" transform="translate(-2.16 -14.6)"/><path class="cls-11" d="M371.63,796.71s-2.48,23.79,35.85,26.13l5.68-8.82-.36-20.16L389,786.75Z" transform="translate(-2.16 -14.6)"/><path class="cls-11" d="M364.46,823.59A47.09,47.09,0,0,0,377,804.15c4.17-12.35-8.08-9.85-8.08-9.85s-6.72,5.91-6.71,6.43-4.63,15.52-4.63,15.52Z" transform="translate(-2.16 -14.6)"/><path class="cls-2" d="M381.3,1214.32a10.18,10.18,0,0,0,1.07,3.84c10.36,3.79,22.1-.4,22.1-.4a8.84,8.84,0,0,0,.76-4C397.84,1215,385.67,1215.29,381.3,1214.32Z" transform="translate(-2.16 -14.6)"/><path class="cls-2" d="M397.11,1194l-.64-.07c.18-1.6,17.25-160.63,16.37-184.69S400.61,963,400.49,962.82l.57-.29c.12.22,11.54,22.48,12.42,46.64S397.28,1192.35,397.11,1194Z" transform="translate(-2.16 -14.6)"/><path class="cls-2" d="M408.63,982.27l-.43-.47c.05,0,4.53-4.38,2.47-17.45l.63-.1C413.42,977.71,408.83,982.09,408.63,982.27Z" transform="translate(-2.16 -14.6)"/><path class="cls-2" d="M393.6,1200.15a26.07,26.07,0,0,1-4.62-.47l.13-.63c.05,0,5.06,1,7.56,0l.24.59A9.26,9.26,0,0,1,393.6,1200.15Z" transform="translate(-2.16 -14.6)"/><path class="cls-2" d="M393.82,1203.31a27.48,27.48,0,0,1-4.84-.45l.13-.62s5,1,8.45,0l.17.62A15,15,0,0,1,393.82,1203.31Z" transform="translate(-2.16 -14.6)"/><path class="cls-2" d="M380.51,1198.53c-2,0-4-.11-4.16-.12l0-.64a56.83,56.83,0,0,0,6.88,0l.08.63A26.35,26.35,0,0,1,380.51,1198.53Z" transform="translate(-2.16 -14.6)"/><path class="cls-2" d="M379.64,1201.77c-2.21,0-4.64-.17-4.79-.18l0-.63c.06,0,5.65.39,7.56,0l.13.63A17,17,0,0,1,379.64,1201.77Z" transform="translate(-2.16 -14.6)"/><path class="cls-8" d="M369.87,871.35s.6,17.06,17.26,15.12,16.3-17.66,16.3-17.66,19.75,1.34,24.52,6.63,33.9,77.28,15.49,80.65-41.9-25.75-41.9-25.75l3.45-7.81s20.91,8.15,21.83,7-10.91-21.32-10.91-21.32l-12-11-21,.61-17.43-13.95Z" transform="translate(-2.16 -14.6)"/><path class="cls-8" d="M417.23,903.45s-11.42,41.15-3.11,61.12c0,0-52.15-4.68-59-1.74a56.09,56.09,0,0,0,6.9-36.38s-11.2-11.26-11.28-15.7S360,883.22,360,883.22l9.84-11.87,2.64,16.32,15.56,6,23.77-3.58Z" transform="translate(-2.16 -14.6)"/><path class="cls-10" d="M404.66,923.35a33.93,33.93,0,0,1-2.23-5s3.65-3,4.2-9.76-5.5-11-5.5-11l-6.35,7.48-3,10.81,6.14,10.87,4,2.54Z" transform="translate(-2.16 -14.6)"/><polygon class="cls-10" points="369.25 908.68 375.93 905.4 380.89 911.77 374.44 918.38 369.25 908.68"/><path class="cls-14" d="M384.14,927.79c.19.74,14.83.31,15.39,0s2.47-31.87,1.91-32-18.53-.46-19.27,0S383.65,925.82,384.14,927.79Z" transform="translate(-2.16 -14.6)"/><path class="cls-10" d="M378.09,920s.56-12.29,4.11-17l.51,8.49s11.26-8.8,16.94-9.91,3.4,2.84-3.4,6.18c0,0,5.63-2.66,6.37-1s-.06,8.83-1.79,10.62-12.13,9.33-17.77,9-5-5.93-5-5.93Z" transform="translate(-2.16 -14.6)"/><path class="cls-8" d="M373.43,921.42s6.85,8.19,7.56,8.88c0,0-19.8,30.31-47.17,29.63s7.09-73.33,12.39-78.1,23.66-10.48,23.66-10.48l-6,16.94s-21,46.81-17.26,47.62S371.11,922.28,373.43,921.42Z" transform="translate(-2.16 -14.6)"/><path class="cls-2" d="M329.32,954.86a2.29,2.29,0,0,1-1.24-.26,1.43,1.43,0,0,1-.53-1c-1.25-7.6,15.83-63.39,20-68.66,4-5.1,21.69-11.91,22.44-12.2l.23.59c-.19.07-18.23,7-22.17,12-4.14,5.22-21.1,60.62-19.86,68.16.08.47.21.59.24.61,3.37,2.17,41-15.14,50.49-26.08l.48.42C370.79,938.28,337.1,954.86,329.32,954.86Z" transform="translate(-2.16 -14.6)"/><path class="cls-2" d="M440.74,952.07c-10.73,0-29.64-16.13-36.57-22-.85-.73-1.49-1.27-1.88-1.58l.4-.5c.39.31,1,.86,1.89,1.6,21.67,18.48,35.34,25.32,40.63,20.31,4.22-4-15.67-64.89-20.72-70.44-4.81-5.27-21.05-8.63-21.21-8.66l.12-.63c.68.14,16.61,3.43,21.56,8.86,4.48,4.92,25.64,66.64,20.69,71.33A6.87,6.87,0,0,1,440.74,952.07Z" transform="translate(-2.16 -14.6)"/><path class="cls-3" d="M1030.84,159.8c-65.26,43.28-20.88,121.88,94,133.55,85.81,8.71,144.22-28.81,120.23-79C1223.87,170.09,1104.92,110.66,1030.84,159.8Z" transform="translate(-2.16 -14.6)"/><path class="cls-3" d="M1559.37,759.62c-40.75-42.1-86.58-4-85.5,22.33,1.38,33.35,22.52,61.23,70.22,44.88C1573,816.93,1578.43,779.31,1559.37,759.62Z" transform="translate(-2.16 -14.6)"/><path class="cls-3" d="M303.21,436.76c-35.13-36.3-74.66-3.42-73.72,19.25,1.18,28.76,19.41,52.8,60.54,38.7C314.92,486.18,319.65,453.74,303.21,436.76Z" transform="translate(-2.16 -14.6)"/><path class="cls-3" d="M737.73,354.5c-9.17,0-16-2.34-20.32-7-10.14-10.86-3.71-30.92-.47-39,9.72-24.38,34.42-43.28,34.66-43.46l.53.69c-.25.19-24.76,18.94-34.38,43.09-3.18,8-9.51,27.62.29,38.12,8.14,8.73,25.28,9,50.93.77l.27.83Q750.49,354.5,737.73,354.5Z" transform="translate(-2.16 -14.6)"/><path class="cls-3" d="M839.89,354.46c-6.63,0-14.77-1.69-24.61-6.39l.38-.78c18.05,8.61,33.69,8.38,44-.65,9.55-8.34,12.73-23,8.12-37.41-8.88-27.64-31.44-45.86-31.66-46l.54-.68c.23.18,23,18.56,31.94,46.46,4.73,14.71,1.44,29.75-8.37,38.32C856.56,350.54,850,354.46,839.89,354.46Z" transform="translate(-2.16 -14.6)"/><path class="cls-3" d="M1291,735.41C1267.88,687,1229.67,635.32,1226.48,631c-22.49,10.5-51.63,41.13-51.92,41.44l-.63-.6c.29-.31,29.82-31.35,52.5-41.78l.32-.14.21.28c.41.53,40.77,54.38,64.79,104.8Z" transform="translate(-2.16 -14.6)"/><path class="cls-10" d="M1230,626.06c-3-1.35-8-.79-12,1.45s-11.69,9.18-8.9,10.49c2.17,1,5.09-2,5.09-2s-6.14,4.83-3.09,6.83,7.59-6,7.59-6-4.41,8.51-1.91,8.94,7.15-9.68,7.15-9.68-1.89,7.89.74,8.1S1230,626.06,1230,626.06Z" transform="translate(-2.16 -14.6)"/></g></svg>