<svg xmlns="http://www.w3.org/2000/svg" xmlns:xlink="http://www.w3.org/1999/xlink" width="267" height="150" viewBox="0 0 1028.59 578.58"><defs><style>.cls-1{isolation:isolate;}.cls-2{fill:#fff;}.cls-3{fill:url(#linear-gradient);}.cls-4{fill:url(#linear-gradient-2);}.cls-27,.cls-5{fill:#d1d3d4;}.cls-6{fill:#bcbec0;}.cls-7{fill:#22557d;}.cls-8{fill:#1d4769;}.cls-13,.cls-27,.cls-9{mix-blend-mode:multiply;}.cls-10,.cls-13{fill:#a1d5d9;}.cls-11{fill:#e6e7e8;}.cls-12{fill:#f1f2f2;}.cls-14{fill:#f26144;}.cls-15{fill:#f1e4b3;}.cls-16{fill:#f2411d;}.cls-17{fill:#133046;}.cls-18{fill:#031d3f;}.cls-19{fill:#9c081c;}.cls-20{fill:#15959f;}.cls-21{fill:#142f45;}.cls-22{fill:#f7d5a0;}.cls-23{fill:#f4a090;}.cls-24{fill:#0e3144;}.cls-25{fill:#f49481;}.cls-26{fill:#a7a9ac;}.cls-28{fill:#1f6c96;}.cls-29{fill:#f1df9a;}.cls-30{fill:#b54933;}.cls-31{opacity:0.6;}.cls-32{fill:#e7f2ea;}.cls-33{fill:#17364f;}</style><linearGradient id="linear-gradient" x1="2061.17" y1="1047.42" x2="2089.7" y2="609.41" gradientTransform="translate(2592 1080) rotate(180)" gradientUnits="userSpaceOnUse"><stop offset="0" stop-color="#b0ffd7"/><stop offset="1" stop-color="#29a5ab"/></linearGradient><linearGradient id="linear-gradient-2" x1="2167.01" y1="1054.32" x2="2195.54" y2="616.31" xlink:href="#linear-gradient"/></defs><g class="cls-1"><g id="Layer_1" data-name="Layer 1"><rect class="cls-2" width="1028.59" height="578.58"/><path class="cls-3" d="M872.81,64.77c-106.3-20.65-162.67,71.76-261.54,82.31s-80.8-98.57-217.9-93.35-197.21,89.8-197.21,89.8-21.75-85.88-90.81-46c-54.19,31.33-79.71,162.93-17,221.77,0,0-41.17,131.26,76.13,168.21,126.78,39.93,182.93-67.28,278.58-30.86s224,96.56,357,61.68c153.13-40.18,130-160.8,130-160.8s48.05-30.79,54.43-114.83C991.5,149.86,946,79,872.81,64.77Z" transform="translate(-4.09 -4.13)"/><path class="cls-4" d="M380.23,476.57c36.11-4.49,83.12-.44,76.68,30.1-6.67,31.58-122.36,53.78-127,8.27C327.36,490,365,478.46,380.23,476.57Z" transform="translate(-4.09 -4.13)"/><path class="cls-5" d="M812.93,243.83l4.87-3.29s24.55,40.13,47.67,53.81,28.45,13.4,27.62,18.42-11,28.17-20.36,38.17c0,0-18.77-11.62-27.74-15.26s-61.66-11.66-72.36-13l20.23-42.35Z" transform="translate(-4.09 -4.13)"/><path class="cls-6" d="M842.17,330.26s-31.16,61.9-31.91,65,11.79,15.52,17.63,8.41,34.32-68.24,34.32-68.24Z" transform="translate(-4.09 -4.13)"/><path class="cls-7" d="M865.47,294.35q-1.54-.92-3.09-2c-.19,13.28-11.81,36.61-22.9,41.7a43.36,43.36,0,0,1,5.51,1.61c9,3.64,27.74,15.26,27.74,15.26,9.38-10,19.53-33.14,20.36-38.17S888.59,308,865.47,294.35Z" transform="translate(-4.09 -4.13)"/><ellipse class="cls-8" cx="794.7" cy="281.31" rx="46.86" ry="13.99" transform="translate(161.07 837.87) rotate(-61.18)"/><path class="cls-2" d="M805.19,290.88l.13.08c.55-.95,1.1-1.92,1.64-2.9,1.27-2.31,2.45-4.6,3.56-6.86C806.35,278.61,788.67,278.88,805.19,290.88Z" transform="translate(-4.09 -4.13)"/><path class="cls-2" d="M786.3,326.84l-.62-1.68c.18-.06,18.19-6.87,31.21-28.48a71.32,71.32,0,0,0,9.71-44.29l1.76-.3a73.23,73.23,0,0,1-9.94,45.51C805.06,319.78,786.48,326.77,786.3,326.84Z" transform="translate(-4.09 -4.13)"/><polygon class="cls-2" points="839.91 355.96 836 354.02 827.67 365.06 834.04 367.69 839.91 355.96"/><g class="cls-9"><path class="cls-10" d="M924.43,188.18c-.07-18.24-31.39.33-31.39.33s23.78-19.95,5.39-36.47c-16.1-14.46-32.09,4.68-32.09,4.68s-8.22-47.86-61.86-28.67q-2,.7-3.84,1.47c-1.16-4.62-4.94-8.74-13.94-10.36-17.79-3.22-24,16.51-24,16.51s-11.33-6.65-14.57,1.68c-2.44,6.26,4.94,15.08,4.94,15.08s-9-5.25-9.06,1.36c0,4.86,7.2,5.16,15.83,6,.93.09,2.56.19,4.67.29-5.44,9.74-6.26,17.47-6.26,17.47-35.06-21-61.65,9.29-44.05,16.87,32.15,13.83,131.53,8.78,151.38,8.82S924.48,201.93,924.43,188.18Z" transform="translate(-4.09 -4.13)"/><path class="cls-10" d="M957.7,209.6c-30.73-14.46-35.42,21.56-35.42,21.56s-9.17-14.41-18.38-3.54c-10.53,12.43,3.09,27.45,3.09,27.45s-18-14-18-.26c0,10.35,22.37,11.34,33.74,11.32,7.6,0,35.53,1.69,58.72-.28,1.14-6.17,2-12.7,2.68-19.6C983.67,242.38,980,220.08,957.7,209.6Z" transform="translate(-4.09 -4.13)"/></g><path class="cls-11" d="M881.27,179.5s31.32-18.57,31.38-.33c.05,13.75-39,15.05-58.89,15s-119.23,5-151.37-8.82c-17.61-7.57,9-37.84,44.05-16.87,0,0,3.6-34.18,46.27-49.45,53.63-19.19,61.85,28.68,61.85,28.68s16-19.14,32.09-4.69C905,159.55,881.27,179.5,881.27,179.5Z" transform="translate(-4.09 -4.13)"/><path class="cls-12" d="M895.22,246.07s-18-14-18-.27c0,10.35,22.37,11.34,33.73,11.32s68.3,3.81,86.71-6.59c10.08-5.69-5.16-28.48-25.24-12.71,0,0-2.07-25.73-26.52-37.23-30.73-14.45-35.42,21.56-35.42,21.56s-9.17-14.41-18.38-3.54C881.59,231,895.22,246.07,895.22,246.07Z" transform="translate(-4.09 -4.13)"/><path class="cls-13" d="M193.1,219.41c12.56-7.09-6.42-35.47-31.43-15.83,0,0-2.58-32.05-33-46.37-38.27-18-44.12,26.85-44.12,26.85s-11.41-17.95-22.89-4.41c-13.11,15.48.8,30.13.8,30.13A36.64,36.64,0,0,0,52.2,206.4q-.66,8.4-.58,16.84c9.37,3.87,24.31,4.39,33.5,4.37C99.27,227.58,170.18,232.36,193.1,219.41Z" transform="translate(-4.09 -4.13)"/><path class="cls-12" d="M52.89,203.4s-19.34-10-19.34,3.73c0,12.89,27.87,14.12,42,14.1s85.07,4.75,108-8.2c12.56-7.1-6.42-35.48-31.43-15.84,0,0-2.58-32-33-46.36C80.83,132.82,75,177.68,75,177.68s-11.41-18-22.89-4.41C39,188.75,52.89,203.4,52.89,203.4Z" transform="translate(-4.09 -4.13)"/><path class="cls-6" d="M741.26,143.42s-9-5.25-9.07,1.36c0,4.86,7.2,5.17,15.84,5.95,6,.55,40.55,1.94,47.86-2.77,6.18-4,3.47-17.83-10.93-9.29-.81.48,15.36-23.93-10-28.52-17.78-3.22-24,16.51-24,16.51s-11.32-6.65-14.57,1.68C733.87,134.6,741.26,143.42,741.26,143.42Z" transform="translate(-4.09 -4.13)"/><path class="cls-13" d="M549.29,132.61c-4.21,11.13-1.56,24.33,8.68,37.09,0,0-13.62,22.68,1.11,44,0,0-.67-18.43,18.47-33.1,0,0,36.6,17.28,78.57-3.13,20.18-9.81,24.73-30.82,15.57-47.37-18.72,8.25-38.53,14.6-60.42,16.94C583.31,150.06,564.7,143.48,549.29,132.61Z" transform="translate(-4.09 -4.13)"/><path class="cls-14" d="M569.92,171.45s36.6,17.28,78.56-3.13c32.8-15.95,24.32-61.43-17.11-69.33-77.86-14.85-110.22,25.15-81,61.51,0,0-13.62,22.68,1.11,44.05C551.45,204.55,550.77,186.12,569.92,171.45Z" transform="translate(-4.09 -4.13)"/><polygon class="cls-14" points="633.78 251.53 682.7 228.5 683.32 231.86 679.71 239.58 666.68 263.74 640.88 261.05 633.78 256.49 633.78 251.53"/><path class="cls-12" d="M729,236.35s-32.38,7.19-43.46-1.56l-47,22.43,13,10.64L680.73,263l36.19-13.34Z" transform="translate(-4.09 -4.13)"/><path class="cls-14" d="M730,235.22v141.3L686.18,416.7l-19.56-72.9s11.77-63.38,11.94-64.59,9.7-26.15,9.7-26.15Z" transform="translate(-4.09 -4.13)"/><path class="cls-14" d="M637.87,255.66s22.86,11.43,50.39-2.6L686.18,416.7s-33.42,17.14-58.52,0C627.66,416.7,631.81,271.93,637.87,255.66Z" transform="translate(-4.09 -4.13)"/><path class="cls-15" d="M654,297.69a56.84,56.84,0,0,1-21.13-3.89.69.69,0,1,1,.57-1.26c.27.12,27.62,12.1,53.59-7.27a.69.69,0,0,1,.82,1.11A55.68,55.68,0,0,1,654,297.69Z" transform="translate(-4.09 -4.13)"/><path class="cls-15" d="M649.89,306.93c-11.59,0-17.28-3.44-17.68-3.69a.69.69,0,0,1,.73-1.18c.17.11,17.52,10.5,54.16-5.64a.69.69,0,0,1,.91.36.68.68,0,0,1-.35.91C671.35,304.87,658.85,306.93,649.89,306.93Z" transform="translate(-4.09 -4.13)"/><path class="cls-2" d="M696.11,279.32c3.72-9,23.32-14.89,26.67-11s4.62,30.83,0,37.93-22.17,23.6-28.17,16.09S693.34,286,696.11,279.32Z" transform="translate(-4.09 -4.13)"/><path class="cls-13" d="M240.63,175.93s37.69-6.42,53.77-.79c10.13,4.43,13.09-5.35,13.09-5.35s26.51-21,43.94-25.13c0,0-16.55-79-15.75-81.71,0,0-1.32.5-3.55,1.46l-5.59-1q-11.46,3-21.87,6.62a174.88,174.88,0,0,0-22.35,21.49A133.68,133.68,0,0,0,267.67,86a251.36,251.36,0,0,0-39.28,25.55C233.31,135.53,240.67,172.09,240.63,175.93Z" transform="translate(-4.09 -4.13)"/><path class="cls-7" d="M260.82,92.51c0-.17,2.71-5.73,2.71-5.73l5.13-.42,6.41-1.76,3.35,3.51s-3.49,3.24-3.74,3.3-12.54,1.84-12.54,1.84Z" transform="translate(-4.09 -4.13)"/><path class="cls-11" d="M268.66,86.36a11.51,11.51,0,0,1,5.46.72s33.83-20,34.12-20.36,11.56-7.17,11.56-7.17L302,56.2C288.14,66.73,276.64,76.85,268.66,86.36Z" transform="translate(-4.09 -4.13)"/><path class="cls-11" d="M264.65,88.38s.86-.87,4-2c0,0-21.63-10-44.23-11.06,0,0-8,4.88-11.57,11.25l27.69,4.14,6.17,2.39,12.21-4.18Z" transform="translate(-4.09 -4.13)"/><path class="cls-14" d="M280.75,170s-16.44-76.38-16.1-81.65c0,0-29.47-5.08-54.22-2.72,0,0,16.61,79.4,16.54,85.17C227,170.83,264.66,164.4,280.75,170Z" transform="translate(-4.09 -4.13)"/><path class="cls-14" d="M293.83,164.68s26.51-21,43.94-25.13c0,0-16.54-79.05-15.75-81.71,0,0-30.73,11.78-47.9,29.24Z" transform="translate(-4.09 -4.13)"/><path class="cls-16" d="M293.83,164.68s-3,9.78-13.08,5.35c0,0-17.56-74.56-16.1-81.65,0,0,4.15,2.87,9.47-1.3C274.12,87.08,292.57,157.17,293.83,164.68Z" transform="translate(-4.09 -4.13)"/><path class="cls-12" d="M617.59,355.06s-15,44.15-2,69.33c0,0-141.27,4.34-167.3,1.21s-30.07-45.45-30.07-45.45l12.43-19.43,21.89-8.86Z" transform="translate(-4.09 -4.13)"/><path class="cls-17" d="M312.69,425.1l135.59.5s-41.21-40.5,4.25-73.74l-132.76-1.12S281.7,377.77,312.69,425.1Z" transform="translate(-4.09 -4.13)"/><path class="cls-2" d="M373.4,425.71c-16-21.76-15.16-41-11.65-53.31a57.89,57.89,0,0,1,11.59-21.71l.77.72a56.8,56.8,0,0,0-11.36,21.33c-3.43,12.07-4.22,30.95,11.5,52.35Z" transform="translate(-4.09 -4.13)"/><path class="cls-2" d="M388.33,426c-23.16-34.69-2.05-74.37-1.83-74.77l.92.5c-.21.4-21,39.53,1.79,73.68Z" transform="translate(-4.09 -4.13)"/><polygon class="cls-17" points="441.3 353.65 616.56 354.56 617.92 350.26 448.44 347.73 434.31 353.45 441.3 353.65"/><path class="cls-17" d="M442.27,420.59l179.26-1.13-.15,5.27s-156.52,5.49-173.1.87S442.27,420.59,442.27,420.59Z" transform="translate(-4.09 -4.13)"/><path class="cls-2" d="M581.29,311.83s-15,26-1.19,41.11c0,0-146.42.76-173.45-1.43s-31.77-27.36-31.77-27.36l12.64-11.37,22.58-5Z" transform="translate(-4.09 -4.13)"/><path class="cls-15" d="M266.05,349.47l140.6,2s-43.26-24.56,3.45-43.7l-137.66-2.38S233.31,321,266.05,349.47Z" transform="translate(-4.09 -4.13)"/><path class="cls-18" d="M309.54,350.82c-10.44-8.12-15.49-16.5-15-24.9.74-12.54,13.48-20.37,14-20.7l.93,1.55c-.12.07-12.47,7.68-13.15,19.26-.45,7.77,4.36,15.63,14.3,23.36Z" transform="translate(-4.09 -4.13)"/><path class="cls-18" d="M318.31,351c-7.52-6.41-11.55-13.69-12-21.61-.72-13.18,8.68-23.33,9.08-23.76l1.32,1.24c-.09.1-9.28,10-8.59,22.43.41,7.41,4.23,14.25,11.35,20.32Z" transform="translate(-4.09 -4.13)"/><polygon class="cls-15" points="398.69 307.1 580.42 309.89 581.77 307.36 406.01 303.68 391.43 306.89 398.69 307.1"/><path class="cls-15" d="M400.35,348.46l185.85,1.63-.09,3.13s-162.22,1.24-179.46-1.71S400.35,348.46,400.35,348.46Z" transform="translate(-4.09 -4.13)"/><path class="cls-6" d="M432.68,378.33l179.44-.59c.1-.59.2-1.17.31-1.74l-179.76.59Z" transform="translate(-4.09 -4.13)"/><rect class="cls-6" x="519.98" y="300.97" width="1.74" height="179.4" transform="translate(125.34 906.83) rotate(-89.92)"/><rect class="cls-6" x="434.61" y="401.24" width="175.73" height="1.74" transform="translate(-15.8 11.56) rotate(-1.7)"/><rect class="cls-6" x="438.14" y="410.02" width="172.99" height="1.74" transform="translate(-8.99 2.2) rotate(-0.69)"/><rect class="cls-6" x="441.66" y="415.23" width="170.54" height="1.74" transform="translate(-10.99 4.76) rotate(-0.96)"/><path class="cls-19" d="M474.75,367.45l23.21.89s16.43,20.29,8.44,53.73l-13.56-13.48s-7.69,14.23-12.12,19C480.72,427.57,487.62,381.58,474.75,367.45Z" transform="translate(-4.09 -4.13)"/><rect class="cls-6" x="524.6" y="280.93" width="1.74" height="176" transform="translate(141.91 882.71) rotate(-88.84)"/><path class="cls-20" d="M370.68,137.09s15.71-12.24,31.95-15.74a64.38,64.38,0,0,1,30,.87l17.18-3.65s30.89,7.24,45.1,22.06l-.73,32s-3.59,27.15-4,27.6S476,207.78,476,207.78l-5.85,17.76L468.39,234l-3.78,23.77-37.38.07-50.05-15.19-13.34-58.14Z" transform="translate(-4.09 -4.13)"/><path class="cls-21" d="M373.2,249.5c-.59-.39-29.49-16.28-49.95-4.8s-11.63,38.66-11.63,38.66l32.87,4.75s42.62.28,45.16-.64,14.21-22.7,14.21-22.7L380.28,250Z" transform="translate(-4.09 -4.13)"/><path class="cls-22" d="M365.2,280.49a63.28,63.28,0,0,1-19.62-1.78l.29,20.17,17.82-.25Z" transform="translate(-4.09 -4.13)"/><path class="cls-23" d="M310.52,262.26s-15.47,16.28-2,38.48l41.66-1.92s-5.21-6.89-2-19.51C348.12,279.31,327.48,258.05,310.52,262.26Z" transform="translate(-4.09 -4.13)"/><path class="cls-11" d="M321.24,262.5c-7,5.21-15.27,16.48-8.15,38l-4.61.21c-13.43-22.2,2-38.48,2-38.48A22.38,22.38,0,0,1,321.24,262.5Z" transform="translate(-4.09 -4.13)"/><path class="cls-22" d="M451.62,194.28c-.29-.15-10.1-5.91-10.1-5.91S437.4,198.6,437,199.79s6.64,5.79,6.64,5.79Z" transform="translate(-4.09 -4.13)"/><path class="cls-24" d="M437.21,215.91c-.28,1.17-23.56.83-24.45.35s-4.65-50.61-3.77-50.86,29.45-1.16,30.64-.44S438,212.76,437.21,215.91Z" transform="translate(-4.09 -4.13)"/><path class="cls-22" d="M444.26,192.32c.41-.45,2.89-14.33-4.37-21.3l-.48,13.27s-18.19-.48-30.39-5.76-4.61,5.22,3.23,7.76c0,0-8.86-1.73-9.85,1.39s20.41,22.44,36,14.44l5-6.84Z" transform="translate(-4.09 -4.13)"/><path class="cls-22" d="M448.22,116.94s5.36,4.15,3.78,10.65-14.33,28.19-29.3,31.55c0,0-27.12-21.42-19.42-39.6s18.23-9.19,18.23-9.19Z" transform="translate(-4.09 -4.13)"/><g class="cls-9"><path class="cls-22" d="M403.28,119.54c7.7-18.18,18.23-9.19,18.23-9.19l26.71,6.59a11.17,11.17,0,0,1,1.59,1.63h0s-3.76,20.83-25.14,22.66C405.35,142.89,402.09,122.35,403.28,119.54Z" transform="translate(-4.09 -4.13)"/></g><path class="cls-22" d="M451.06,74.58s16.26,53-24.11,59.26-25.2-60.33-25.2-60.33L432.5,68Z" transform="translate(-4.09 -4.13)"/><path class="cls-22" d="M400.69,98.46s-3-4.86-8.29-3.22,2.9,24.51,11.1,21.25S400.69,98.46,400.69,98.46Z" transform="translate(-4.09 -4.13)"/><path class="cls-17" d="M447.28,78.07S430.51,105.85,399,96.6s-13.72-28.46-13.72-28.46,3.1,4.18,5.75,4.14,15.89-29.29,43.84-25S454,60.3,454,60.3s5.87-1.46,10.89,6,4.84,28.64-6.1,34.33l-4.52-5A55.51,55.51,0,0,0,447.28,78.07Z" transform="translate(-4.09 -4.13)"/><path class="cls-22" d="M452.37,97.73s2.87-5,8.2-3.45-2.21,24.58-10.5,21.55S452.37,97.73,452.37,97.73Z" transform="translate(-4.09 -4.13)"/><path class="cls-8" d="M358.49,278.38s-1.95,14.56.31,22.19c0,0,98.56,10.78,138.34-2s45.64-29.91,31.31-43.16S457.68,237.1,358.49,278.38Z" transform="translate(-4.09 -4.13)"/><path class="cls-22" d="M489.39,283.91s-17.56,19.39-23.07,19.91l21.6-.35,7.26-3.84,1-9.42Z" transform="translate(-4.09 -4.13)"/><path class="cls-23" d="M526.49,265.81s15.92,15.83,3.13,38.4l-41.7-.74s5-7,1.47-19.56C489.39,283.91,509.41,262.07,526.49,265.81Z" transform="translate(-4.09 -4.13)"/><path class="cls-11" d="M515.78,266.35c7.12,5,15.72,16,9.22,37.78l4.62.08c12.79-22.57-3.13-38.4-3.13-38.4A22.16,22.16,0,0,0,515.78,266.35Z" transform="translate(-4.09 -4.13)"/><path class="cls-22" d="M441.12,254.27s9.1,5.5,13.4,13,6.11,16,5.16,22.7-4.12,13.8-5.81,14.47-1.87-2.32-1.87-2.32-1.44,9.44-5.87,10.28-2.34-7.81-2.34-7.81.11,7.69-2.76,7.94-10.36-20.06-5.35-44.6C435.68,268,435,258,441.12,254.27Z" transform="translate(-4.09 -4.13)"/><path class="cls-22" d="M454.47,273.18s8.23,8,12.69,8.85c0,0-1.35,6.48-11.5,1.17S454.47,273.18,454.47,273.18Z" transform="translate(-4.09 -4.13)"/><polygon class="cls-22" points="431.59 263.82 427.52 262.83 418.66 255.89 427.35 250.28 431.37 248.13 434.51 248.08 437.03 250.14 444.78 261.94 431.59 263.82"/><path class="cls-20" d="M441.09,251.58s-8.49,3.95-7.86,16.61c0,0-81,0-100.05-33.35s30.8-92.21,37.5-97.75c0,0,25.15,55.47,14.06,80.67C384.74,217.76,437.5,248.78,441.09,251.58Z" transform="translate(-4.09 -4.13)"/><path class="cls-20" d="M450.49,190.6s-8.06,9.7-8.71,16.19c0,0,30.11,45.68,64.71,44.3s17.1-81.84-11.58-110.46c0,0-23.78,27-16.8,62C478.11,202.59,462.52,197.5,450.49,190.6Z" transform="translate(-4.09 -4.13)"/><path class="cls-2" d="M499.07,301c.1-.36,2.53-8.88-1.06-16.47L497,285c3.39,7.19,1,15.56,1,15.64Z" transform="translate(-4.09 -4.13)"/><path class="cls-2" d="M505.7,301c.12-.44,2.81-10.92-2.57-19.3l-1,.64c5.09,7.93,2.45,18.26,2.42,18.36Z" transform="translate(-4.09 -4.13)"/><path class="cls-2" d="M343,296.51l1.14-.29c-2.69-10.62-.08-15.42-.05-15.47l-1-.59C342.94,280.37,340.17,285.36,343,296.51Z" transform="translate(-4.09 -4.13)"/><path class="cls-2" d="M336.22,296.55l1.12-.37c-3.81-11.58,2.87-17.73,2.94-17.79l-.79-.88C339.42,277.58,332.18,284.24,336.22,296.55Z" transform="translate(-4.09 -4.13)"/><path class="cls-2" d="M433.11,265.91l.28-1.15c-.84-.2-84.05-21-89.85-40.19s31.3-76.79,31.68-77.37l-1-.64c-1.55,2.38-37.8,58.58-31.82,78.35S429.65,265.05,433.11,265.91Z" transform="translate(-4.09 -4.13)"/><path class="cls-2" d="M503.71,242.82a12.8,12.8,0,0,0,7.16-1.69c17.7-10.93-15.85-94.79-17.29-98.36l-1.09.44c.34.87,34.63,86.51,17.76,96.92a11.76,11.76,0,0,1-6.54,1.54c-20.64-.5-60.62-37.1-61.07-37.51l-.8.87C443.69,206.73,482.58,242.31,503.71,242.82Z" transform="translate(-4.09 -4.13)"/><path class="cls-25" d="M276.66,440.51c18.51,3.62,40.44-12.59,40.44-12.59s16.52-21.43,8.43-27.05-18.89,7-18.89,7,41-78.05,7.13-78.76c-40.14-.85-41.91,50.35-41.91,50.35s-15.06-18.8-26.85-7.84C232.07,383.66,237.37,432.82,276.66,440.51Z" transform="translate(-4.09 -4.13)"/><path class="cls-2" d="M290.22,437.38l1.29-.4c0-.1-3-10-2.28-26.58.68-15.32,4.77-39.63,20.38-68.5l-1.19-.64c-15.75,29.13-19.86,53.68-20.54,69.15C287.14,427.22,290.09,437,290.22,437.38Z" transform="translate(-4.09 -4.13)"/><path class="cls-2" d="M289.14,427.27c18.42-4.16,26.39-16.15,26.72-16.66l-1.13-.73c-.08.12-8,12-25.89,16.07Z" transform="translate(-4.09 -4.13)"/><path class="cls-2" d="M283.39,420.56a32.85,32.85,0,0,0,5.14.46v-1.35c-21.93-.15-33.59-23.87-33.7-24.11l-1.22.58C253.73,396.37,264,417.19,283.39,420.56Z" transform="translate(-4.09 -4.13)"/><path class="cls-5" d="M288,424.53c-11,13.43-3,30.07,17.83,29.74s28.76-18.47,21.44-25.84S301.37,408.28,288,424.53Z" transform="translate(-4.09 -4.13)"/><path class="cls-26" d="M324.44,425.82c2,4.93,2.75,9.81-1.17,11.36-8.78,3.47-7.88-1.46-17.88,3.43s-20.89,0-22.3-2.37c.63,8.9,8.83,16.25,22.75,16,20.84-.32,28.76-18.47,21.44-25.84C326.46,427.61,325.51,426.72,324.44,425.82Z" transform="translate(-4.09 -4.13)"/><polygon class="cls-27" points="209.21 252.14 206.5 235.33 223.42 213.13 247.09 207.41 271.27 221.34 281.02 246.09 273.06 267.55 250.56 277.92 227.36 271.87 212.01 257.01 209.21 252.14"/><path class="cls-23" d="M224,285.87c.65.46,2.46,7.64-4.27,9.91s-11.46,0-11.52-.34,1.39-11.58,2.19-12.3,8.32-3.33,9-3S224,285.87,224,285.87Z" transform="translate(-4.09 -4.13)"/><path class="cls-23" d="M199.47,271.68c4.17,3.36,8.78,15.95,8.78,15.95l-6.11,8.9-9.44-9.34Z" transform="translate(-4.09 -4.13)"/><path class="cls-22" d="M186.51,261.07c-.62,3.2-1.47,5.63,2.8,7.7L192.7,271l-4.91,4L175,273.37l1.21-4.09-4.52-2.42L175,263.1l6.05-1.59Z" transform="translate(-4.09 -4.13)"/><polygon class="cls-22" points="182.19 417.68 181.13 420.75 181.71 422.51 184.79 422.92 186.78 422.69 186.49 421.17 186.13 418.2 182.19 417.68"/><path class="cls-28" d="M185.22,424.88s-3.38,6.16-2.33,11.94c0,0,18.4,2.79,27.18-1.08,0,0,1.35-2.86.13-4.45s-13.31-3.22-19.62-6C190.58,425.3,190.25,427.87,185.22,424.88Z" transform="translate(-4.09 -4.13)"/><path class="cls-29" d="M185.22,424.88s-3.38,6.16-2.33,11.94c0,0,18.4,2.79,27.18-1.08,0,0,1.35-2.86.13-4.45s-13.31-3.22-19.62-6C190.58,425.3,190.25,427.87,185.22,424.88Z" transform="translate(-4.09 -4.13)"/><polygon class="cls-22" points="170.79 421.26 172.45 412.76 174.89 415.26 176.15 421.69 176.07 424.43 172.11 424.31 170.79 421.26"/><path class="cls-30" d="M198.37,319.91a73.49,73.49,0,0,1,.81,25.92c-2.16,13.84-4.68,22.93-4.87,24s-2,45.27-3.87,54.07a10.16,10.16,0,0,1-4.84-1s-1.74-17.64-1.83-33.5,0-36.75,0-36.75l-.89-8.9L186,328.33Z" transform="translate(-4.09 -4.13)"/><path class="cls-17" d="M194.34,248.81s12.78-7.05-.44-16.66l-7.39,8.44Z" transform="translate(-4.09 -4.13)"/><g class="cls-9"><path class="cls-22" d="M175,263.1l6.05-1.59,4.57-.37.8.32c-.39,1.94-.78,3.59.09,5.05-2.28,1-7.61,1.72-12.09,1.81l-2.73-1.46Z" transform="translate(-4.09 -4.13)"/></g><path class="cls-22" d="M189.62,236c3.95,2.2,7.28,13.43,6.13,18l-2.65.93s.23,12.32-13.72,8.81l-7-5.73-.65-11.76,8.79-5.34Z" transform="translate(-4.09 -4.13)"/><path class="cls-17" d="M178.11,249.07s17.45-3.15,15.79-16.92a56.46,56.46,0,0,1-16.06,2.9c-8.93.26-16.65,6.43-12.09,19.69,4.18,12.17-23.9,20.21-21.52,35.39,1.41,8.92,8,8.56,12.59,17.18,5.27,9.94-8.89,29.87,16.42,26.62l19.15-18.42-11.66-16.92L180,276.91l-3.77-7.63s7.23-5.07,2.23-14.9Z" transform="translate(-4.09 -4.13)"/><path class="cls-14" d="M164.52,320.11s-3.06,9.6,1.06,24.27c3.29,11.71,12,23.51,12,23.51s-10.31,14.44-2.71,55.45c0,0,1.06,1.94,5.37.65,0,0,3.86-39.47,12.56-52.33,0,0-7-29.31-4.51-41.43,0,0,11.19-4,10.69-9.67-.51-5.94-1.54-6-1.54-6l-27.72,3.54Z" transform="translate(-4.09 -4.13)"/><path class="cls-22" d="M179.76,250.33s-1.46-2.83-3.86-1.17.43,8,3.89,7l.86-2.25Z" transform="translate(-4.09 -4.13)"/><path class="cls-23" d="M167.32,309.91s-2.51,9.42-2.8,10.2c0,0,16.73,7,31.72-1.55a31.35,31.35,0,0,0,1.16-4c0-.65-4.14-7.06-.75-20,0,0,4.24-1.55,5.49-4.83,0,0-3.22-12.32-2.67-18.06l-10.16-2.91s3.44,3.75-3.09,4.14a12.68,12.68,0,0,1-10-3.63l-12.61,6.14,1.2,13.06Z" transform="translate(-4.09 -4.13)"/><path class="cls-5" d="M210.59,434.1a110,110,0,0,1-18.85.25l1.68,3.39c5.65.2,12.32-.09,16.65-2A7.77,7.77,0,0,0,210.59,434.1Z" transform="translate(-4.09 -4.13)"/><path class="cls-15" d="M174.88,425.39s-3.38,6.17-2.33,11.94c0,0,18.4,2.8,27.17-1.08,0,0,1.36-2.86.13-4.44s-13.3-3.23-19.61-6C180.24,425.82,179.91,428.39,174.88,425.39Z" transform="translate(-4.09 -4.13)"/><path class="cls-11" d="M200.25,434.59c-9.63,2.43-22.31.92-27.9.09a13.15,13.15,0,0,0,.2,2.65s18.4,2.8,27.17-1.08A7.63,7.63,0,0,0,200.25,434.59Z" transform="translate(-4.09 -4.13)"/><path class="cls-2" d="M177,424.61a.19.19,0,0,1-.2-.16c-4.2-19,5.26-53.94,5.84-56-14.85-21.05-13.9-46.68-13.89-46.94a.21.21,0,0,1,.21-.2.21.21,0,0,1,.2.22c0,.25-.94,25.81,13.88,46.75l.06.09,0,.09c-.1.36-10.15,36.52-5.87,55.93a.2.2,0,0,1-.16.25Z" transform="translate(-4.09 -4.13)"/><path class="cls-2" d="M169.68,333.28a.19.19,0,0,1-.19-.14.2.2,0,0,1,.13-.26c10-3.39,8-9.79,7.93-10.06a.21.21,0,1,1,.39-.13c0,.07,2.19,7.06-8.19,10.58Z" transform="translate(-4.09 -4.13)"/><path class="cls-2" d="M179.06,429.39a.17.17,0,0,1-.11-.06.14.14,0,0,1,0-.2,9.34,9.34,0,0,1,5.37-1.78c.09,0,.18.06.17.15a.14.14,0,0,1-.14.14h0a9.27,9.27,0,0,0-5.19,1.72A.14.14,0,0,1,179.06,429.39Z" transform="translate(-4.09 -4.13)"/><path class="cls-2" d="M181.44,429.93a.15.15,0,0,1-.12-.07.15.15,0,0,1,.05-.2,13.77,13.77,0,0,1,5.22-1.72.15.15,0,0,1,.16.14.14.14,0,0,1-.13.15,13.23,13.23,0,0,0-5.1,1.68Z" transform="translate(-4.09 -4.13)"/><path class="cls-2" d="M184,430a.14.14,0,0,1-.13-.09.15.15,0,0,1,.08-.19,24.47,24.47,0,0,1,4.75-1.29.14.14,0,0,1,.16.12.15.15,0,0,1-.12.17,23.41,23.41,0,0,0-4.68,1.27Z" transform="translate(-4.09 -4.13)"/><path class="cls-2" d="M190.52,427.66a.17.17,0,0,1-.13-.09.14.14,0,0,1,.08-.19,11.88,11.88,0,0,1,3.74-.91.14.14,0,0,1,.15.14.15.15,0,0,1-.14.15,11.72,11.72,0,0,0-3.64.89Z" transform="translate(-4.09 -4.13)"/><path class="cls-2" d="M192.63,428.25a.16.16,0,0,1-.14-.11.15.15,0,0,1,.11-.18s2.59-.68,4.1-.89a.14.14,0,0,1,.16.12.15.15,0,0,1-.12.16c-1.49.21-4.05.89-4.07.89Z" transform="translate(-4.09 -4.13)"/><path class="cls-2" d="M195.35,428.84a.15.15,0,0,1-.14-.11.15.15,0,0,1,.1-.18s2.12-.61,3.48-.86a.14.14,0,0,1,.06.28c-1.36.25-3.44.86-3.46.86Z" transform="translate(-4.09 -4.13)"/><path class="cls-7" d="M213.82,226.69c-17,23.73,7.4,60.26,40.6,57.58,37-3,43.24-44,20.2-63.45C258.46,207.21,232.68,200.37,213.82,226.69Zm56.65-1.64c19.35,16.31,14.08,50.79-17,53.29-27.88,2.25-48.39-28.43-34.1-48.36C235.24,207.87,256.9,213.63,270.47,225.05Z" transform="translate(-4.09 -4.13)"/><path class="cls-7" d="M231.45,276S168.69,362,151.39,356.55s69.78-89.48,69.78-89.48Z" transform="translate(-4.09 -4.13)"/><g class="cls-31"><path class="cls-2" d="M250.82,223.11c14.74-2.06,28.66,20.46,21.21,25.62S237.76,224.93,250.82,223.11Z" transform="translate(-4.09 -4.13)"/></g><path class="cls-22" d="M223.46,289.71c1.41-2.09-2.22-8.42-4.13-7.38s0,2.23,0,2.23-.87-2.54-2.61-1.51,1.11,2.91,1.11,2.91-1.91-1.16-2.62-.69,1.51,2.54,1.51,2.54-3.34-1-3.41.08S219.57,295.51,223.46,289.71Z" transform="translate(-4.09 -4.13)"/><path class="cls-2" d="M180.35,295.91a20.07,20.07,0,0,0,6.86-1.26l-.16-.4c-.08,0-8,3.2-13.57-.77l-.25.36A12.1,12.1,0,0,0,180.35,295.91Z" transform="translate(-4.09 -4.13)"/><path class="cls-22" d="M186.42,310.81s3.49-5.05,4.19-4.68-.21,3.1-.21,3.1,8-4.45,8.68-3.26-2.34,2.44-2.34,2.44,5.17-2.22,5.06-.38-4.66,2.78-4.66,2.78,4.34-.5,4.23.7-4.8,1.19-4.8,1.19,4-.32,3.44,1.2-5.9.43-5.9.43a9.44,9.44,0,0,1-7.07,1.08C183.35,314.33,186.42,310.81,186.42,310.81Z" transform="translate(-4.09 -4.13)"/><path class="cls-23" d="M163.61,275.42c-1.83,0-22,30.44-13.7,41.51,5.25,7,38.66-.57,38.66-.57l-2.17-6s-20.43.75-23-3.81c-.77-1.36,2.6-7.62,2.6-7.62S174.88,275.64,163.61,275.42Z" transform="translate(-4.09 -4.13)"/><path class="cls-14" d="M674,474.77s7.38,15.7,19.31,2.73l3.29-8.22L680.7,459.5l-7.36,10.33Z" transform="translate(-4.09 -4.13)"/><polygon class="cls-17" points="669.9 470.64 537.87 451.15 610.36 390.07 622.35 390.15 662.12 411.34 669.9 470.64"/><polygon class="cls-17" points="689.21 473.37 811.04 500 775.54 419.51 725.42 412.42 689.21 473.37"/><path class="cls-12" d="M674,474.77l10.32-7.23-.37-22.43-62.11-19.5-66.7,23.66-5.2,3.56S668.75,444.32,674,474.77Z" transform="translate(-4.09 -4.13)"/><path class="cls-12" d="M693.3,477.5l-9-10L698,444.67l55.53,7.09,41,22.93,8.61,15.92,2,4.53S710.11,461.54,693.3,477.5Z" transform="translate(-4.09 -4.13)"/><path class="cls-2" d="M706.61,408.45a47.07,47.07,0,0,0-33.13-18.63c-22.5-2.37-53.74,2.71-53.74,2.71l-64.61,56.74s120.29-23.2,129.18,18.27Z" transform="translate(-4.09 -4.13)"/><path class="cls-2" d="M803.1,490.61s-90.59-51-118.79-23.07l22.3-59.09s21.08-21.87,69.12,12.81Z" transform="translate(-4.09 -4.13)"/><path class="cls-15" d="M634.83,448.34S609.92,469.12,608,488a163.13,163.13,0,0,1,15.51-15.35s-1.22,11.8-.49,18.42c0,0,18.61-35.1,26.18-41.46A116.53,116.53,0,0,0,634.83,448.34Z" transform="translate(-4.09 -4.13)"/><path class="cls-12" d="M622.51,403.68l9.06-6.67s58.93-1.44,65.23,17.18l-2.68,6.14S686.47,400.45,622.51,403.68Z" transform="translate(-4.09 -4.13)"/><path class="cls-12" d="M612.44,412.71l-10.16,6.45S645,413.22,658,423l6.12-6.87S646,407,612.44,412.71Z" transform="translate(-4.09 -4.13)"/><path class="cls-12" d="M653.31,428.09l-5.41,6.11s-13-9.62-62,.23l7.89-5.76S627.48,419.29,653.31,428.09Z" transform="translate(-4.09 -4.13)"/><path class="cls-11" d="M671.84,417.25c6.35-.48,20.84,7.36,20.59,9.44s-4.21,17.93-9.91,17.5-27.16-5.47-26.62-8.56S667.86,417.55,671.84,417.25Z" transform="translate(-4.09 -4.13)"/><path class="cls-2" d="M743.06,410.78s21.45,6.93,25.7,10.1L773,442,745.56,431.7Z" transform="translate(-4.09 -4.13)"/><path class="cls-12" d="M710.24,415.64l-1.66,6.73a38.09,38.09,0,0,1,28.86-1.17l.33-8S718.72,408.55,710.24,415.64Z" transform="translate(-4.09 -4.13)"/><path class="cls-12" d="M707.37,425.94s14.52-6.2,30.41-1.44l.93,7s-23.26-3.48-33.66,1.53Z" transform="translate(-4.09 -4.13)"/><path class="cls-12" d="M704.57,436.42s46.51-8.79,76.9,15.71l3.35,9.17S752,432.23,702.31,442.39Z" transform="translate(-4.09 -4.13)"/><path class="cls-12" d="M701.37,445.5l-2.3,6.25s58.68-10.9,89.57,26.81l-2.82-11.16S764.06,438,701.37,445.5Z" transform="translate(-4.09 -4.13)"/><path class="cls-23" d="M744.58,366s28.26,36.69,19.54,43.72l-14.23-7.23-5.59-13.81-1.37-14.86Z" transform="translate(-4.09 -4.13)"/><polygon class="cls-22" points="731.67 479.48 732.73 483.01 736.47 482.53 736.05 477.84 731.67 479.48"/><path class="cls-32" d="M736.51,486.1s.24,1,2.14.81a1.91,1.91,0,0,0,1.91-1.77s2.11,3.21,2.43,5.64-2.48,17.71-8.65,14.44S736.51,486.1,736.51,486.1Z" transform="translate(-4.09 -4.13)"/><path class="cls-7" d="M743,490.78a8.72,8.72,0,0,0-.4-1.58c-1,4.48-3.65,12.4-5.05,13.91s-2.43,1.11-5-.07a3.93,3.93,0,0,0,1.85,2.18C740.51,508.49,743.3,493.2,743,490.78Z" transform="translate(-4.09 -4.13)"/><path class="cls-22" d="M763,460l1.53,2c2.47,1.24,3.54.89,2.87-1.48L766.13,457Z" transform="translate(-4.09 -4.13)"/><path class="cls-32" d="M764.49,462.05a9,9,0,0,0,.67,7.38s13.51,6,17.89,2.79-6.87-10.44-15.69-11.65C767.36,460.57,767.87,462.05,764.49,462.05Z" transform="translate(-4.09 -4.13)"/><path class="cls-7" d="M765.16,469.43s13.51,6,17.89,2.79a2.12,2.12,0,0,0,.74-2.76,6.8,6.8,0,0,1-2.59,1.92c-3.18,1.36-13.23-2.13-16.84-4A11.12,11.12,0,0,0,765.16,469.43Z" transform="translate(-4.09 -4.13)"/><path class="cls-22" d="M731.16,356.43s-.35,3.94.28,4.5a40.49,40.49,0,0,0,4.29,2.32l-3,3.44h-7.56l-4.4-1.19-.87-1.76a34.16,34.16,0,0,0,4-2.18c.35-.42.21-6.46.21-6.46Z" transform="translate(-4.09 -4.13)"/><path class="cls-17" d="M737.19,349.3s.37,11.12,3.79,16.6-7.75.37-7.75.37l-4.11-5v-6.9l5.22-6.33Z" transform="translate(-4.09 -4.13)"/><path class="cls-17" d="M718.11,350.36l-5.22,9.3,5.76,4.08h4.71s2.39-2.81,2.32-2.85-.63-5.62-.63-5.62Z" transform="translate(-4.09 -4.13)"/><path class="cls-22" d="M731.16,356.43s-.35,3.94.28,4.5a40.49,40.49,0,0,0,4.29,2.32l-3,3.44h-7.56l-4.4-1.19-.87-1.76a34.16,34.16,0,0,0,4-2.18c.35-.42.21-6.46.21-6.46Z" transform="translate(-4.09 -4.13)"/><g class="cls-9"><path class="cls-22" d="M731.16,356.43l-7-1.33s.06,2.55,0,4.45a13.19,13.19,0,0,0,7.11,1A16.47,16.47,0,0,1,731.16,356.43Z" transform="translate(-4.09 -4.13)"/></g><path class="cls-22" d="M736.34,341.92s1.85,16.13-8.64,16.44-12.81-14-12.81-14l5.69-7.65,7.91-2Z" transform="translate(-4.09 -4.13)"/><path class="cls-22" d="M735.45,345.77s1.84-4.17,3.74-3.06.9,7.8-4.27,7.64S735.45,345.77,735.45,345.77Z" transform="translate(-4.09 -4.13)"/><path class="cls-17" d="M718.69,330c1.32-2.79,4.84-4.53,10.8-2.63s15.49,12.28,6.93,16.76S715.26,337.17,718.69,330Z" transform="translate(-4.09 -4.13)"/><path class="cls-17" d="M720,329.58s-2.59-.89-6.3,3.52c-4.49,5.34-11.87,27.48-4.21,41.75l11.35-10.53a74,74,0,0,1-.38-25.7Z" transform="translate(-4.09 -4.13)"/><path class="cls-23" d="M710.85,367.82c1.69-1.48,10.75-4.92,10.75-4.92a6.62,6.62,0,0,0,7,2.81c5-.84,4.52-3.76,4.52-3.76l11.43,4s.07,8.64,5.49,15.46c0,0-1.83,7.1-5.91,10.54,0,0-.84,10.76,1.76,14.06s5.48,11.54,4.15,20.12l-4.36-2.55-9.07-7.8-13.28,1.69L710,422.88s7.86-18.45,8.7-22.45S712,386.72,712,386.72Z" transform="translate(-4.09 -4.13)"/><polygon class="cls-22" points="724.24 378.48 721.29 382.49 720.89 384.52 723.61 385.15 726.14 381.63 724.24 378.48"/><path class="cls-23" d="M725.68,385.42s1.2,2.73,2.89,3.54c0,0-10.58,22.75-23.58,21.48s-3.07-35.59,5.86-42.62c0,0,9.86,3.26,4.43,19.4-3,8.76-2.13,9.71-2.13,9.71Z" transform="translate(-4.09 -4.13)"/><path class="cls-23" d="M763.86,407.86l.26,1.85s-2.74,3.26-23.3,0c0,0-2.53-2.23-3-4.65,0,0,8.54-1.68,12-2.58a50.71,50.71,0,0,1,9.59-.89l3.32,4.53Z" transform="translate(-4.09 -4.13)"/><path class="cls-8" d="M734.89,427.56s-9.21,19.18-22,12.16c-14.65-8.06,2.39-30.79,25-35,0,0,20.78,25.3,29.49,54.53,0,0-3.24,2.53-4.36,2.11C763,461.36,737.42,432.83,734.89,427.56Z" transform="translate(-4.09 -4.13)"/><path class="cls-33" d="M726.2,438.44s1.24,29.39,9.53,46.68a4.14,4.14,0,0,0,5-1.41s2.69-44.37,0-54.74c-2.47-9.56-10.43-8.29-12.49-4.39C725.24,430.35,726.2,438.44,726.2,438.44Z" transform="translate(-4.09 -4.13)"/><path class="cls-2" d="M728.73,371.1a1.29,1.29,0,0,1-1.16-.85,1.19,1.19,0,0,1,.61-1.36.63.63,0,0,1,.37-.12c.45,0,.82.47,1,.9a1.07,1.07,0,0,1-.24,1.24A.87.87,0,0,1,728.73,371.1Zm-.18-1.91a.28.28,0,0,0-.13,0c-.39.28-.55.59-.45.89s.75.7,1,.46.15-.64.11-.77C729,369.47,728.75,369.19,728.55,369.19Z" transform="translate(-4.09 -4.13)"/><path class="cls-2" d="M734.61,394.87a1.28,1.28,0,0,1-1.16-.86,1.17,1.17,0,0,1,.61-1.35.63.63,0,0,1,.37-.12c.45,0,.82.47,1,.9a1.07,1.07,0,0,1-.24,1.24A.87.87,0,0,1,734.61,394.87Zm-.18-1.91a.2.2,0,0,0-.13,0c-.39.28-.55.58-.45.89s.75.7,1,.46.16-.65.12-.77C734.89,393.24,734.63,393,734.43,393Z" transform="translate(-4.09 -4.13)"/><path class="cls-2" d="M732.59,403.09a1.27,1.27,0,0,1-1.16-.85c-.08-.23-.16-.82.61-1.36a.63.63,0,0,1,.37-.12c.45,0,.82.47,1,.9a1.07,1.07,0,0,1-.24,1.24A.82.82,0,0,1,732.59,403.09Zm-.18-1.91a.21.21,0,0,0-.13.05c-.39.27-.55.58-.45.88s.75.7,1,.47.16-.65.12-.78C732.87,401.46,732.61,401.18,732.41,401.18Z" transform="translate(-4.09 -4.13)"/><path class="cls-2" d="M734.64,406.45l-.39-.15c0-.07,2.66-7,2.93-18.16S729,365.85,729,365.74l.34-.25c.09.11,8.59,11.36,8.31,22.66S734.67,406.38,734.64,406.45Z" transform="translate(-4.09 -4.13)"/><path class="cls-22" d="M735.73,405.17a7.35,7.35,0,0,0-6,.73c-2,1.13-5.86,4.6-4.46,5.26,1.09.51,2.55-1,2.55-1s-3.07,2.42-1.54,3.43,3.8-3,3.8-3-2.21,4.27-1,4.48,3.59-4.85,3.59-4.85-1,4,.37,4.06S735.73,405.17,735.73,405.17Z" transform="translate(-4.09 -4.13)"/><path class="cls-18" d="M730.1,393.21c.11.41,8.44.17,8.75,0s1.41-18.14,1.09-18.23-10.54-.26-11,0S729.82,392.08,730.1,393.21Z" transform="translate(-4.09 -4.13)"/><path class="cls-22" d="M727.46,384.8c-.15-.16-1.11-5.11,1.45-7.65l.25,4.75s6.5-.27,10.84-2.22,1.68,1.85-1.12,2.8c0,0,3.16-.66,3.53.45s-6.72,7.29-12.33,4.5l-2.29-1.58Z" transform="translate(-4.09 -4.13)"/><path class="cls-17" d="M739.46,490.42a8.42,8.42,0,0,1-3.8-.71l.21-.37a8.62,8.62,0,0,0,3.86.66v.42Z" transform="translate(-4.09 -4.13)"/><path class="cls-17" d="M739.2,492.53a10.4,10.4,0,0,1-4.11-.77l.21-.37-.1.19.1-.19a10.13,10.13,0,0,0,3.92.71Z" transform="translate(-4.09 -4.13)"/><rect class="cls-17" x="767.3" y="463.22" width="4.12" height="0.42" transform="translate(-122.49 595.55) rotate(-39.79)"/><path class="cls-17" d="M770.38,465.76l-.26-.34a24.37,24.37,0,0,0,3.07-2.8l.34.26A26.35,26.35,0,0,1,770.38,465.76Z" transform="translate(-4.09 -4.13)"/><circle class="cls-2" cx="564.71" cy="143.44" r="3.78"/><circle class="cls-2" cx="600.07" cy="143.44" r="3.78"/><circle class="cls-2" cx="635.42" cy="143.44" r="3.78"/></g></g></svg>